<?xml version="1.0" standalone="no"?><!-- Generator: Gravit.io --><svg xmlns="http://www.w3.org/2000/svg" xmlns:xlink="http://www.w3.org/1999/xlink" style="isolation:isolate" viewBox="0 0 841.89 595.276" width="841.89" height="595.276"><defs><clipPath id="_clipPath_iiFjYPAxwlmRbZHtuDFRxBtB28jtD8Dk"><rect width="841.89" height="595.276"/></clipPath></defs><g clip-path="url(#_clipPath_iiFjYPAxwlmRbZHtuDFRxBtB28jtD8Dk)"><g style="isolation:isolate"><g><rect x="100" y="447" width="90" height="35" transform="matrix(1,0,0,1,0,0)" fill="rgb(221,217,216)"/><path d=" M 135.398 472.259 L 133.68 472.259 L 131.902 467.718 L 126.18 467.718 L 124.422 472.259 L 122.742 472.259 L 128.387 457.923 L 129.783 457.923 L 135.398 472.259 L 135.398 472.259 Z  M 126.766 466.224 L 131.385 466.224 L 129.725 461.8 L 129.725 461.8 Q 129.402 460.96 129.061 459.739 L 129.061 459.739 L 129.061 459.739 Q 128.846 460.677 128.445 461.8 L 128.445 461.8 L 126.766 466.224 L 126.766 466.224 Z  M 138.738 457.063 L 138.738 472.259 L 137.117 472.259 L 137.117 457.063 L 138.738 457.063 L 138.738 457.063 Z  M 143.797 461.556 L 143.797 472.259 L 142.176 472.259 L 142.176 461.556 L 143.797 461.556 L 143.797 461.556 Z  M 142.039 458.655 L 142.039 458.655 L 142.039 458.655 Q 142.039 458.099 142.313 457.84 L 142.313 457.84 L 142.313 457.84 Q 142.586 457.581 142.996 457.581 L 142.996 457.581 L 142.996 457.581 Q 143.387 457.581 143.67 457.845 L 143.67 457.845 L 143.67 457.845 Q 143.953 458.108 143.953 458.655 L 143.953 458.655 L 143.953 458.655 Q 143.953 459.202 143.67 459.471 L 143.67 459.471 L 143.67 459.471 Q 143.387 459.739 142.996 459.739 L 142.996 459.739 L 142.996 459.739 Q 142.586 459.739 142.313 459.471 L 142.313 459.471 L 142.313 459.471 Q 142.039 459.202 142.039 458.655 Z  M 151.512 472.454 L 151.512 472.454 L 151.512 472.454 Q 149.188 472.454 147.913 471.023 L 147.913 471.023 L 147.913 471.023 Q 146.639 469.593 146.639 466.976 L 146.639 466.976 L 146.639 466.976 Q 146.639 464.29 147.933 462.825 L 147.933 462.825 L 147.933 462.825 Q 149.227 461.36 151.619 461.36 L 151.619 461.36 L 151.619 461.36 Q 152.391 461.36 153.162 461.526 L 153.162 461.526 L 153.162 461.526 Q 153.934 461.692 154.373 461.917 L 154.373 461.917 L 153.875 463.294 L 153.875 463.294 Q 153.338 463.079 152.703 462.938 L 152.703 462.938 L 152.703 462.938 Q 152.068 462.796 151.58 462.796 L 151.58 462.796 L 151.58 462.796 Q 148.318 462.796 148.318 466.956 L 148.318 466.956 L 148.318 466.956 Q 148.318 468.929 149.114 469.983 L 149.114 469.983 L 149.114 469.983 Q 149.91 471.038 151.473 471.038 L 151.473 471.038 L 151.473 471.038 Q 152.811 471.038 154.217 470.462 L 154.217 470.462 L 154.217 471.897 L 154.217 471.897 Q 153.143 472.454 151.512 472.454 Z  M 161.277 472.454 L 161.277 472.454 L 161.277 472.454 Q 158.904 472.454 157.532 471.009 L 157.532 471.009 L 157.532 471.009 Q 156.16 469.563 156.16 466.995 L 156.16 466.995 L 156.16 466.995 Q 156.16 464.407 157.435 462.884 L 157.435 462.884 L 157.435 462.884 Q 158.709 461.36 160.857 461.36 L 160.857 461.36 L 160.857 461.36 Q 162.869 461.36 164.041 462.684 L 164.041 462.684 L 164.041 462.684 Q 165.213 464.007 165.213 466.175 L 165.213 466.175 L 165.213 467.2 L 157.84 467.2 L 157.84 467.2 Q 157.889 469.085 158.792 470.062 L 158.792 470.062 L 158.792 470.062 Q 159.695 471.038 161.336 471.038 L 161.336 471.038 L 161.336 471.038 Q 163.064 471.038 164.754 470.315 L 164.754 470.315 L 164.754 471.761 L 164.754 471.761 Q 163.895 472.132 163.128 472.293 L 163.128 472.293 L 163.128 472.293 Q 162.361 472.454 161.277 472.454 Z  M 160.838 462.718 L 160.838 462.718 L 160.838 462.718 Q 159.549 462.718 158.782 463.558 L 158.782 463.558 L 158.782 463.558 Q 158.016 464.397 157.879 465.882 L 157.879 465.882 L 163.475 465.882 L 163.475 465.882 Q 163.475 464.349 162.791 463.533 L 162.791 463.533 L 162.791 463.533 Q 162.107 462.718 160.838 462.718 Z " fill-rule="evenodd" fill="rgb(0,0,0)"/><rect x="100" y="447" width="91" height="35" transform="matrix(1,0,0,1,0,0)" fill="none" vector-effect="non-scaling-stroke" stroke-width="2" stroke="rgb(74,134,232)" stroke-linejoin="miter" stroke-linecap="square" stroke-miterlimit="2"/></g><g><rect x="284" y="447" width="90" height="35" transform="matrix(1,0,0,1,0,0)" fill="rgb(221,217,216)"/><path d=" M 311.815 472.259 L 311.815 457.981 L 315.849 457.981 L 315.849 457.981 Q 318.69 457.981 319.96 458.831 L 319.96 458.831 L 319.96 458.831 Q 321.229 459.681 321.229 461.517 L 321.229 461.517 L 321.229 461.517 Q 321.229 462.786 320.521 463.611 L 320.521 463.611 L 320.521 463.611 Q 319.813 464.437 318.456 464.681 L 318.456 464.681 L 318.456 464.778 L 318.456 464.778 Q 321.708 465.335 321.708 468.196 L 321.708 468.196 L 321.708 468.196 Q 321.708 470.11 320.414 471.185 L 320.414 471.185 L 320.414 471.185 Q 319.12 472.259 316.796 472.259 L 316.796 472.259 L 311.815 472.259 L 311.815 472.259 Z  M 313.476 459.417 L 313.476 464.095 L 316.21 464.095 L 316.21 464.095 Q 317.968 464.095 318.739 463.543 L 318.739 463.543 L 318.739 463.543 Q 319.511 462.991 319.511 461.683 L 319.511 461.683 L 319.511 461.683 Q 319.511 460.481 318.651 459.949 L 318.651 459.949 L 318.651 459.949 Q 317.792 459.417 315.917 459.417 L 315.917 459.417 L 313.476 459.417 L 313.476 459.417 Z  M 316.317 465.501 L 313.476 465.501 L 313.476 470.843 L 316.454 470.843 L 316.454 470.843 Q 318.183 470.843 319.057 470.174 L 319.057 470.174 L 319.057 470.174 Q 319.931 469.505 319.931 468.079 L 319.931 468.079 L 319.931 468.079 Q 319.931 466.751 319.037 466.126 L 319.037 466.126 L 319.037 466.126 Q 318.144 465.501 316.317 465.501 L 316.317 465.501 L 316.317 465.501 Z  M 333.769 466.897 L 333.769 466.897 L 333.769 466.897 Q 333.769 469.515 332.45 470.984 L 332.45 470.984 L 332.45 470.984 Q 331.132 472.454 328.808 472.454 L 328.808 472.454 L 328.808 472.454 Q 327.372 472.454 326.259 471.78 L 326.259 471.78 L 326.259 471.78 Q 325.146 471.106 324.54 469.847 L 324.54 469.847 L 324.54 469.847 Q 323.935 468.587 323.935 466.897 L 323.935 466.897 L 323.935 466.897 Q 323.935 464.28 325.243 462.82 L 325.243 462.82 L 325.243 462.82 Q 326.552 461.36 328.876 461.36 L 328.876 461.36 L 328.876 461.36 Q 331.122 461.36 332.445 462.854 L 332.445 462.854 L 332.445 462.854 Q 333.769 464.349 333.769 466.897 Z  M 325.614 466.897 L 325.614 466.897 L 325.614 466.897 Q 325.614 468.948 326.435 470.022 L 326.435 470.022 L 326.435 470.022 Q 327.255 471.097 328.847 471.097 L 328.847 471.097 L 328.847 471.097 Q 330.438 471.097 331.264 470.027 L 331.264 470.027 L 331.264 470.027 Q 332.089 468.958 332.089 466.897 L 332.089 466.897 L 332.089 466.897 Q 332.089 464.856 331.264 463.797 L 331.264 463.797 L 331.264 463.797 Q 330.438 462.737 328.827 462.737 L 328.827 462.737 L 328.827 462.737 Q 327.235 462.737 326.425 463.782 L 326.425 463.782 L 326.425 463.782 Q 325.614 464.827 325.614 466.897 Z  M 341.591 461.38 L 341.591 461.38 L 341.591 461.38 Q 343.7 461.38 344.867 462.82 L 344.867 462.82 L 344.867 462.82 Q 346.034 464.261 346.034 466.897 L 346.034 466.897 L 346.034 466.897 Q 346.034 469.534 344.857 470.994 L 344.857 470.994 L 344.857 470.994 Q 343.681 472.454 341.591 472.454 L 341.591 472.454 L 341.591 472.454 Q 340.546 472.454 339.682 472.068 L 339.682 472.068 L 339.682 472.068 Q 338.817 471.683 338.231 470.882 L 338.231 470.882 L 338.114 470.882 L 337.772 472.259 L 336.61 472.259 L 336.61 457.063 L 338.231 457.063 L 338.231 460.755 L 338.231 460.755 Q 338.231 461.995 338.153 462.981 L 338.153 462.981 L 338.231 462.981 L 338.231 462.981 Q 339.364 461.38 341.591 461.38 Z  M 341.356 462.737 L 341.356 462.737 L 341.356 462.737 Q 339.696 462.737 338.964 463.689 L 338.964 463.689 L 338.964 463.689 Q 338.231 464.642 338.231 466.897 L 338.231 466.897 L 338.231 466.897 Q 338.231 469.153 338.983 470.125 L 338.983 470.125 L 338.983 470.125 Q 339.735 471.097 341.396 471.097 L 341.396 471.097 L 341.396 471.097 Q 342.89 471.097 343.622 470.008 L 343.622 470.008 L 343.622 470.008 Q 344.354 468.919 344.354 466.878 L 344.354 466.878 L 344.354 466.878 Q 344.354 464.788 343.622 463.763 L 343.622 463.763 L 343.622 463.763 Q 342.89 462.737 341.356 462.737 Z " fill-rule="evenodd" fill="rgb(0,0,0)"/></g><g><rect x="467" y="447" width="90" height="35" transform="matrix(1,0,0,1,0,0)" fill="rgb(221,217,216)"/><path d=" M 495.055 459.261 L 495.055 459.261 L 495.055 459.261 Q 492.701 459.261 491.339 460.828 L 491.339 460.828 L 491.339 460.828 Q 489.977 462.396 489.977 465.12 L 489.977 465.12 L 489.977 465.12 Q 489.977 467.923 491.29 469.451 L 491.29 469.451 L 491.29 469.451 Q 492.604 470.979 495.035 470.979 L 495.035 470.979 L 495.035 470.979 Q 496.529 470.979 498.443 470.442 L 498.443 470.442 L 498.443 471.897 L 498.443 471.897 Q 496.959 472.454 494.781 472.454 L 494.781 472.454 L 494.781 472.454 Q 491.627 472.454 489.913 470.54 L 489.913 470.54 L 489.913 470.54 Q 488.199 468.626 488.199 465.101 L 488.199 465.101 L 488.199 465.101 Q 488.199 462.894 489.024 461.233 L 489.024 461.233 L 489.024 461.233 Q 489.85 459.573 491.407 458.675 L 491.407 458.675 L 491.407 458.675 Q 492.965 457.776 495.074 457.776 L 495.074 457.776 L 495.074 457.776 Q 497.32 457.776 499 458.597 L 499 458.597 L 498.297 460.022 L 498.297 460.022 Q 496.676 459.261 495.055 459.261 Z  M 509.098 472.259 L 507.896 472.259 L 507.574 470.735 L 507.496 470.735 L 507.496 470.735 Q 506.695 471.741 505.899 472.098 L 505.899 472.098 L 505.899 472.098 Q 505.104 472.454 503.912 472.454 L 503.912 472.454 L 503.912 472.454 Q 502.32 472.454 501.417 471.634 L 501.417 471.634 L 501.417 471.634 Q 500.514 470.813 500.514 469.3 L 500.514 469.3 L 500.514 469.3 Q 500.514 466.058 505.699 465.901 L 505.699 465.901 L 507.516 465.843 L 507.516 465.179 L 507.516 465.179 Q 507.516 463.919 506.974 463.318 L 506.974 463.318 L 506.974 463.318 Q 506.432 462.718 505.24 462.718 L 505.24 462.718 L 505.24 462.718 Q 503.902 462.718 502.213 463.538 L 502.213 463.538 L 501.715 462.298 L 501.715 462.298 Q 502.506 461.868 503.448 461.624 L 503.448 461.624 L 503.448 461.624 Q 504.391 461.38 505.338 461.38 L 505.338 461.38 L 505.338 461.38 Q 507.252 461.38 508.175 462.229 L 508.175 462.229 L 508.175 462.229 Q 509.098 463.079 509.098 464.954 L 509.098 464.954 L 509.098 472.259 L 509.098 472.259 Z  M 504.234 471.116 L 504.234 471.116 L 504.234 471.116 Q 505.748 471.116 506.612 470.286 L 506.612 470.286 L 506.612 470.286 Q 507.477 469.456 507.477 467.962 L 507.477 467.962 L 507.477 466.995 L 505.855 467.063 L 505.855 467.063 Q 503.922 467.132 503.067 467.664 L 503.067 467.664 L 503.067 467.664 Q 502.213 468.196 502.213 469.319 L 502.213 469.319 L 502.213 469.319 Q 502.213 470.198 502.745 470.657 L 502.745 470.657 L 502.745 470.657 Q 503.277 471.116 504.234 471.116 Z  M 517.32 461.36 L 517.32 461.36 L 517.32 461.36 Q 518.033 461.36 518.6 461.478 L 518.6 461.478 L 518.375 462.981 L 518.375 462.981 Q 517.711 462.835 517.203 462.835 L 517.203 462.835 L 517.203 462.835 Q 515.904 462.835 514.981 463.89 L 514.981 463.89 L 514.981 463.89 Q 514.059 464.944 514.059 466.517 L 514.059 466.517 L 514.059 472.259 L 512.438 472.259 L 512.438 461.556 L 513.775 461.556 L 513.961 463.538 L 514.039 463.538 L 514.039 463.538 Q 514.635 462.493 515.475 461.927 L 515.475 461.927 L 515.475 461.927 Q 516.314 461.36 517.32 461.36 Z  M 529.84 466.897 L 529.84 466.897 L 529.84 466.897 Q 529.84 469.515 528.521 470.984 L 528.521 470.984 L 528.521 470.984 Q 527.203 472.454 524.879 472.454 L 524.879 472.454 L 524.879 472.454 Q 523.443 472.454 522.33 471.78 L 522.33 471.78 L 522.33 471.78 Q 521.217 471.106 520.611 469.847 L 520.611 469.847 L 520.611 469.847 Q 520.006 468.587 520.006 466.897 L 520.006 466.897 L 520.006 466.897 Q 520.006 464.28 521.314 462.82 L 521.314 462.82 L 521.314 462.82 Q 522.623 461.36 524.947 461.36 L 524.947 461.36 L 524.947 461.36 Q 527.193 461.36 528.517 462.854 L 528.517 462.854 L 528.517 462.854 Q 529.84 464.349 529.84 466.897 Z  M 521.686 466.897 L 521.686 466.897 L 521.686 466.897 Q 521.686 468.948 522.506 470.022 L 522.506 470.022 L 522.506 470.022 Q 523.326 471.097 524.918 471.097 L 524.918 471.097 L 524.918 471.097 Q 526.51 471.097 527.335 470.027 L 527.335 470.027 L 527.335 470.027 Q 528.16 468.958 528.16 466.897 L 528.16 466.897 L 528.16 466.897 Q 528.16 464.856 527.335 463.797 L 527.335 463.797 L 527.335 463.797 Q 526.51 462.737 524.898 462.737 L 524.898 462.737 L 524.898 462.737 Q 523.307 462.737 522.496 463.782 L 522.496 463.782 L 522.496 463.782 Q 521.686 464.827 521.686 466.897 Z  M 534.303 457.063 L 534.303 472.259 L 532.682 472.259 L 532.682 457.063 L 534.303 457.063 L 534.303 457.063 Z " fill-rule="evenodd" fill="rgb(0,0,0)"/></g><g><rect x="651" y="447" width="90" height="35" transform="matrix(1,0,0,1,0,0)" fill="rgb(221,217,216)"/><path d=" M 685.388 464.983 L 685.388 464.983 L 685.388 464.983 Q 685.388 468.519 683.469 470.389 L 683.469 470.389 L 683.469 470.389 Q 681.55 472.259 677.946 472.259 L 677.946 472.259 L 673.991 472.259 L 673.991 457.981 L 678.366 457.981 L 678.366 457.981 Q 681.696 457.981 683.542 459.827 L 683.542 459.827 L 683.542 459.827 Q 685.388 461.673 685.388 464.983 Z  M 683.63 465.042 L 683.63 465.042 L 683.63 465.042 Q 683.63 462.249 682.229 460.833 L 682.229 460.833 L 682.229 460.833 Q 680.827 459.417 678.063 459.417 L 678.063 459.417 L 675.651 459.417 L 675.651 470.823 L 677.673 470.823 L 677.673 470.823 Q 680.642 470.823 682.136 469.363 L 682.136 469.363 L 682.136 469.363 Q 683.63 467.903 683.63 465.042 Z  M 696.11 472.259 L 694.909 472.259 L 694.587 470.735 L 694.509 470.735 L 694.509 470.735 Q 693.708 471.741 692.912 472.098 L 692.912 472.098 L 692.912 472.098 Q 692.116 472.454 690.925 472.454 L 690.925 472.454 L 690.925 472.454 Q 689.333 472.454 688.43 471.634 L 688.43 471.634 L 688.43 471.634 Q 687.526 470.813 687.526 469.3 L 687.526 469.3 L 687.526 469.3 Q 687.526 466.058 692.712 465.901 L 692.712 465.901 L 694.528 465.843 L 694.528 465.179 L 694.528 465.179 Q 694.528 463.919 693.986 463.318 L 693.986 463.318 L 693.986 463.318 Q 693.444 462.718 692.253 462.718 L 692.253 462.718 L 692.253 462.718 Q 690.915 462.718 689.226 463.538 L 689.226 463.538 L 688.728 462.298 L 688.728 462.298 Q 689.519 461.868 690.461 461.624 L 690.461 461.624 L 690.461 461.624 Q 691.403 461.38 692.351 461.38 L 692.351 461.38 L 692.351 461.38 Q 694.265 461.38 695.188 462.229 L 695.188 462.229 L 695.188 462.229 Q 696.11 463.079 696.11 464.954 L 696.11 464.954 L 696.11 472.259 L 696.11 472.259 Z  M 691.247 471.116 L 691.247 471.116 L 691.247 471.116 Q 692.761 471.116 693.625 470.286 L 693.625 470.286 L 693.625 470.286 Q 694.489 469.456 694.489 467.962 L 694.489 467.962 L 694.489 466.995 L 692.868 467.063 L 692.868 467.063 Q 690.935 467.132 690.08 467.664 L 690.08 467.664 L 690.08 467.664 Q 689.226 468.196 689.226 469.319 L 689.226 469.319 L 689.226 469.319 Q 689.226 470.198 689.758 470.657 L 689.758 470.657 L 689.758 470.657 Q 690.29 471.116 691.247 471.116 Z  M 703.688 472.259 L 701.794 472.259 L 697.731 461.556 L 699.47 461.556 L 701.774 467.903 L 701.774 467.903 Q 702.556 470.13 702.692 470.794 L 702.692 470.794 L 702.771 470.794 L 702.771 470.794 Q 702.878 470.276 703.449 468.65 L 703.449 468.65 L 703.449 468.65 Q 704.021 467.024 706.013 461.556 L 706.013 461.556 L 707.751 461.556 L 703.688 472.259 L 703.688 472.259 Z  M 713.991 472.454 L 713.991 472.454 L 713.991 472.454 Q 711.618 472.454 710.246 471.009 L 710.246 471.009 L 710.246 471.009 Q 708.874 469.563 708.874 466.995 L 708.874 466.995 L 708.874 466.995 Q 708.874 464.407 710.148 462.884 L 710.148 462.884 L 710.148 462.884 Q 711.423 461.36 713.571 461.36 L 713.571 461.36 L 713.571 461.36 Q 715.583 461.36 716.755 462.684 L 716.755 462.684 L 716.755 462.684 Q 717.927 464.007 717.927 466.175 L 717.927 466.175 L 717.927 467.2 L 710.554 467.2 L 710.554 467.2 Q 710.603 469.085 711.506 470.062 L 711.506 470.062 L 711.506 470.062 Q 712.409 471.038 714.05 471.038 L 714.05 471.038 L 714.05 471.038 Q 715.778 471.038 717.468 470.315 L 717.468 470.315 L 717.468 471.761 L 717.468 471.761 Q 716.608 472.132 715.842 472.293 L 715.842 472.293 L 715.842 472.293 Q 715.075 472.454 713.991 472.454 Z  M 713.552 462.718 L 713.552 462.718 L 713.552 462.718 Q 712.263 462.718 711.496 463.558 L 711.496 463.558 L 711.496 463.558 Q 710.729 464.397 710.593 465.882 L 710.593 465.882 L 716.188 465.882 L 716.188 465.882 Q 716.188 464.349 715.505 463.533 L 715.505 463.533 L 715.505 463.533 Q 714.821 462.718 713.552 462.718 Z " fill-rule="evenodd" fill="rgb(0,0,0)"/></g></g><g style="isolation:isolate"><path d=" M 500.388 129.36 L 500.388 129.36 Q 505.284 129.36 508.092 130.152 L 508.092 130.152 L 508.092 130.152 Q 510.9 130.944 512.16 132.672 L 512.16 132.672 L 512.16 132.672 Q 513.42 134.4 513.42 137.352 L 513.42 137.352 L 513.42 137.352 Q 513.42 140.664 511.08 144.048 L 511.08 144.048 L 511.08 144.048 Q 508.74 147.432 504.636 149.628 L 504.636 149.628 L 504.636 149.628 Q 500.532 151.824 495.564 151.824 L 495.564 151.824 L 495.564 151.824 Q 489.084 151.824 486.06 149.376 L 486.06 149.376 L 486.06 149.376 Q 483.036 146.928 483.036 142.104 L 483.036 142.104 L 483.036 142.104 Q 483.036 136.776 488.364 134.328 L 488.364 134.328 L 488.364 134.328 Q 486.42 133.68 485.664 132.42 L 485.664 132.42 L 485.664 132.42 Q 484.908 131.16 484.908 129 L 484.908 129 L 484.908 129 Q 484.908 125.04 488.724 121.368 L 488.724 121.368 L 488.724 121.368 Q 486.564 119.856 485.376 117.516 L 485.376 117.516 L 485.376 117.516 Q 484.188 115.176 484.188 112.224 L 484.188 112.224 L 484.188 112.224 Q 484.188 107.04 487.572 103.656 L 487.572 103.656 L 487.572 103.656 Q 490.956 100.272 497.148 100.272 L 497.148 100.272 L 497.148 100.272 Q 499.74 100.272 501.684 100.92 L 501.684 100.92 L 513.492 100.92 L 513.492 100.92 Q 513.996 102.648 513.996 105.384 L 513.996 105.384 L 513.996 105.384 Q 510.684 104.592 507.012 104.232 L 507.012 104.232 L 507.012 104.232 Q 508.668 105.888 509.496 107.976 L 509.496 107.976 L 509.496 107.976 Q 510.324 110.064 510.324 111.792 L 510.324 111.792 L 510.324 111.792 Q 510.324 117.048 506.868 120.468 L 506.868 120.468 L 506.868 120.468 Q 503.412 123.888 497.292 123.888 L 497.292 123.888 L 497.292 123.888 Q 494.268 123.888 491.748 122.952 L 491.748 122.952 L 491.748 122.952 Q 489.948 124.752 489.948 126.336 L 489.948 126.336 L 489.948 126.336 Q 489.948 127.704 490.668 128.316 L 490.668 128.316 L 490.668 128.316 Q 491.388 128.928 493.476 129.144 L 493.476 129.144 L 493.476 129.144 Q 495.564 129.36 500.388 129.36 L 500.388 129.36 L 500.388 129.36 Z  M 496.428 103.512 L 496.428 103.512 Q 493.692 103.512 492.252 105.78 L 492.252 105.78 L 492.252 105.78 Q 490.812 108.048 490.812 111.288 L 490.812 111.288 L 490.812 111.288 Q 490.812 115.752 492.756 118.164 L 492.756 118.164 L 492.756 118.164 Q 494.7 120.576 498.156 120.576 L 498.156 120.576 L 498.156 120.576 Q 500.604 120.576 502.08 118.56 L 502.08 118.56 L 502.08 118.56 Q 503.556 116.544 503.556 112.872 L 503.556 112.872 L 503.556 112.872 Q 503.556 108.912 501.648 106.212 L 501.648 106.212 L 501.648 106.212 Q 499.74 103.512 496.428 103.512 L 496.428 103.512 L 496.428 103.512 Z  M 497.292 148.008 L 497.292 148.008 Q 500.316 148.008 502.656 146.928 L 502.656 146.928 L 502.656 146.928 Q 504.996 145.848 506.22 144.048 L 506.22 144.048 L 506.22 144.048 Q 507.444 142.248 507.444 140.16 L 507.444 140.16 L 507.444 140.16 Q 507.444 138.216 506.508 137.172 L 506.508 137.172 L 506.508 137.172 Q 505.572 136.128 503.016 135.624 L 503.016 135.624 L 503.016 135.624 Q 500.46 135.12 495.564 135.12 L 495.564 135.12 L 495.564 135.12 Q 493.836 135.12 491.676 134.976 L 491.676 134.976 L 491.676 134.976 Q 490.308 136.128 489.768 137.424 L 489.768 137.424 L 489.768 137.424 Q 489.228 138.72 489.228 140.592 L 489.228 140.592 L 489.228 140.592 Q 489.228 144.336 491.1 146.172 L 491.1 146.172 L 491.1 146.172 Q 492.972 148.008 497.292 148.008 L 497.292 148.008 L 497.292 148.008 Z  M 536.028 134.544 L 536.028 134.544 Q 531.132 134.544 527.46 132.42 L 527.46 132.42 L 527.46 132.42 Q 523.788 130.296 521.772 126.408 L 521.772 126.408 L 521.772 126.408 Q 519.756 122.52 519.756 117.408 L 519.756 117.408 L 519.756 117.408 Q 519.756 112.584 521.844 108.66 L 521.844 108.66 L 521.844 108.66 Q 523.932 104.736 527.64 102.504 L 527.64 102.504 L 527.64 102.504 Q 531.348 100.272 536.028 100.272 L 536.028 100.272 L 536.028 100.272 Q 543.588 100.272 547.944 104.952 L 547.944 104.952 L 547.944 104.952 Q 552.3 109.632 552.3 117.408 L 552.3 117.408 L 552.3 117.408 Q 552.3 122.304 550.248 126.192 L 550.248 126.192 L 550.248 126.192 Q 548.196 130.08 544.488 132.312 L 544.488 132.312 L 544.488 132.312 Q 540.78 134.544 536.028 134.544 L 536.028 134.544 L 536.028 134.544 Z  M 536.604 131.088 L 536.604 131.088 Q 540.78 131.088 542.94 127.632 L 542.94 127.632 L 542.94 127.632 Q 545.1 124.176 545.1 118.272 L 545.1 118.272 L 545.1 118.272 Q 545.1 113.952 543.768 110.64 L 543.768 110.64 L 543.768 110.64 Q 542.436 107.328 540.204 105.528 L 540.204 105.528 L 540.204 105.528 Q 537.972 103.728 535.308 103.728 L 535.308 103.728 L 535.308 103.728 Q 531.276 103.728 529.152 107.04 L 529.152 107.04 L 529.152 107.04 Q 527.028 110.352 527.028 115.896 L 527.028 115.896 L 527.028 115.896 Q 527.028 123.096 529.584 127.092 L 529.584 127.092 L 529.584 127.092 Q 532.14 131.088 536.604 131.088 L 536.604 131.088 L 536.604 131.088 Z  M 580.884 110.28 L 580.884 110.28 Q 579.516 111.144 577.284 111.144 L 577.284 111.144 L 577.284 111.144 Q 577.068 107.976 574.836 105.6 L 574.836 105.6 L 574.836 105.6 Q 572.604 103.224 569.22 103.224 L 569.22 103.224 L 569.22 103.224 Q 566.988 103.224 565.656 104.304 L 565.656 104.304 L 565.656 104.304 Q 564.324 105.384 564.324 107.184 L 564.324 107.184 L 564.324 107.184 Q 564.324 108.552 564.9 109.452 L 564.9 109.452 L 564.9 109.452 Q 565.476 110.352 567.276 111.36 L 567.276 111.36 L 567.276 111.36 Q 569.076 112.368 572.892 113.88 L 572.892 113.88 L 572.892 113.88 Q 576.852 115.392 579.048 116.832 L 579.048 116.832 L 579.048 116.832 Q 581.244 118.272 582.18 120.036 L 582.18 120.036 L 582.18 120.036 Q 583.116 121.8 583.116 124.392 L 583.116 124.392 L 583.116 124.392 Q 583.116 128.928 579.372 131.736 L 579.372 131.736 L 579.372 131.736 Q 575.628 134.544 569.94 134.544 L 569.94 134.544 L 569.94 134.544 Q 565.836 134.544 563.28 133.896 L 563.28 133.896 L 563.28 133.896 Q 560.724 133.248 558.06 131.88 L 558.06 131.88 L 558.06 131.88 Q 558.276 130.008 558.276 127.056 L 558.276 127.056 L 558.276 127.056 Q 558.276 125.112 558.132 122.952 L 558.132 122.952 L 558.132 122.952 Q 559.212 122.16 561.876 122.16 L 561.876 122.16 L 561.876 122.16 Q 562.38 126.624 564.648 128.892 L 564.648 128.892 L 564.648 128.892 Q 566.916 131.16 570.66 131.16 L 570.66 131.16 L 570.66 131.16 Q 573.54 131.16 575.196 129.864 L 575.196 129.864 L 575.196 129.864 Q 576.852 128.568 576.852 126.552 L 576.852 126.552 L 576.852 126.552 Q 576.852 125.256 576.24 124.32 L 576.24 124.32 L 576.24 124.32 Q 575.628 123.384 573.972 122.448 L 573.972 122.448 L 573.972 122.448 Q 572.316 121.512 569.076 120.216 L 569.076 120.216 L 569.076 120.216 Q 564.9 118.56 562.668 117.192 L 562.668 117.192 L 562.668 117.192 Q 560.436 115.824 559.428 113.988 L 559.428 113.988 L 559.428 113.988 Q 558.42 112.152 558.42 109.272 L 558.42 109.272 L 558.42 109.272 Q 558.42 106.392 560.292 104.376 L 560.292 104.376 L 560.292 104.376 Q 562.164 102.36 564.972 101.316 L 564.972 101.316 L 564.972 101.316 Q 567.78 100.272 570.372 100.272 L 570.372 100.272 L 570.372 100.272 Q 573.54 100.272 575.988 100.884 L 575.988 100.884 L 575.988 100.884 Q 578.436 101.496 580.74 102.792 L 580.74 102.792 L 580.74 102.792 Q 580.596 104.952 580.596 106.176 L 580.596 106.176 L 580.596 106.176 Q 580.596 108.48 580.884 110.28 L 580.884 110.28 L 580.884 110.28 Z  M 611.7 110.28 L 611.7 110.28 Q 610.332 111.144 608.1 111.144 L 608.1 111.144 L 608.1 111.144 Q 607.884 107.976 605.652 105.6 L 605.652 105.6 L 605.652 105.6 Q 603.42 103.224 600.036 103.224 L 600.036 103.224 L 600.036 103.224 Q 597.804 103.224 596.472 104.304 L 596.472 104.304 L 596.472 104.304 Q 595.14 105.384 595.14 107.184 L 595.14 107.184 L 595.14 107.184 Q 595.14 108.552 595.716 109.452 L 595.716 109.452 L 595.716 109.452 Q 596.292 110.352 598.092 111.36 L 598.092 111.36 L 598.092 111.36 Q 599.892 112.368 603.708 113.88 L 603.708 113.88 L 603.708 113.88 Q 607.668 115.392 609.864 116.832 L 609.864 116.832 L 609.864 116.832 Q 612.06 118.272 612.996 120.036 L 612.996 120.036 L 612.996 120.036 Q 613.932 121.8 613.932 124.392 L 613.932 124.392 L 613.932 124.392 Q 613.932 128.928 610.188 131.736 L 610.188 131.736 L 610.188 131.736 Q 606.444 134.544 600.756 134.544 L 600.756 134.544 L 600.756 134.544 Q 596.652 134.544 594.096 133.896 L 594.096 133.896 L 594.096 133.896 Q 591.54 133.248 588.876 131.88 L 588.876 131.88 L 588.876 131.88 Q 589.092 130.008 589.092 127.056 L 589.092 127.056 L 589.092 127.056 Q 589.092 125.112 588.948 122.952 L 588.948 122.952 L 588.948 122.952 Q 590.028 122.16 592.692 122.16 L 592.692 122.16 L 592.692 122.16 Q 593.196 126.624 595.464 128.892 L 595.464 128.892 L 595.464 128.892 Q 597.732 131.16 601.476 131.16 L 601.476 131.16 L 601.476 131.16 Q 604.356 131.16 606.012 129.864 L 606.012 129.864 L 606.012 129.864 Q 607.668 128.568 607.668 126.552 L 607.668 126.552 L 607.668 126.552 Q 607.668 125.256 607.056 124.32 L 607.056 124.32 L 607.056 124.32 Q 606.444 123.384 604.788 122.448 L 604.788 122.448 L 604.788 122.448 Q 603.132 121.512 599.892 120.216 L 599.892 120.216 L 599.892 120.216 Q 595.716 118.56 593.484 117.192 L 593.484 117.192 L 593.484 117.192 Q 591.252 115.824 590.244 113.988 L 590.244 113.988 L 590.244 113.988 Q 589.236 112.152 589.236 109.272 L 589.236 109.272 L 589.236 109.272 Q 589.236 106.392 591.108 104.376 L 591.108 104.376 L 591.108 104.376 Q 592.98 102.36 595.788 101.316 L 595.788 101.316 L 595.788 101.316 Q 598.596 100.272 601.188 100.272 L 601.188 100.272 L 601.188 100.272 Q 604.356 100.272 606.804 100.884 L 606.804 100.884 L 606.804 100.884 Q 609.252 101.496 611.556 102.792 L 611.556 102.792 L 611.556 102.792 Q 611.412 104.952 611.412 106.176 L 611.412 106.176 L 611.412 106.176 Q 611.412 108.48 611.7 110.28 L 611.7 110.28 L 611.7 110.28 Z  M 627.468 92.136 L 627.468 92.136 Q 625.668 92.136 624.444 90.912 L 624.444 90.912 L 624.444 90.912 Q 623.22 89.688 623.22 87.96 L 623.22 87.96 L 623.22 87.96 Q 623.22 86.088 624.48 84.828 L 624.48 84.828 L 624.48 84.828 Q 625.74 83.568 627.468 83.568 L 627.468 83.568 L 627.468 83.568 Q 629.412 83.568 630.6 84.792 L 630.6 84.792 L 630.6 84.792 Q 631.788 86.016 631.788 87.96 L 631.788 87.96 L 631.788 87.96 Q 631.788 89.616 630.528 90.876 L 630.528 90.876 L 630.528 90.876 Q 629.268 92.136 627.468 92.136 L 627.468 92.136 L 627.468 92.136 Z  M 619.476 134.112 L 619.476 134.112 Q 619.476 132.168 619.836 131.016 L 619.836 131.016 L 619.836 131.016 Q 622.716 131.016 623.76 129.684 L 623.76 129.684 L 623.76 129.684 Q 624.804 128.352 624.804 124.752 L 624.804 124.752 L 624.804 110.496 L 624.804 110.496 Q 624.804 108.624 624.444 107.544 L 624.444 107.544 L 624.444 107.544 Q 624.084 106.464 622.932 105.924 L 622.932 105.924 L 622.932 105.924 Q 621.78 105.384 619.404 105.384 L 619.404 105.384 L 619.404 105.384 Q 619.404 103.728 620.052 102.72 L 620.052 102.72 L 620.052 102.72 Q 621.852 102.72 625.164 101.928 L 625.164 101.928 L 625.164 101.928 Q 628.476 101.136 629.7 100.272 L 629.7 100.272 L 629.7 100.272 Q 631.284 100.776 631.284 103.152 L 631.284 103.152 L 631.284 124.752 L 631.284 124.752 Q 631.284 128.352 632.22 129.684 L 632.22 129.684 L 632.22 129.684 Q 633.156 131.016 635.532 131.016 L 635.532 131.016 L 635.532 131.016 Q 635.892 132.24 635.892 134.112 L 635.892 134.112 L 635.892 134.112 Q 632.148 133.896 627.756 133.896 L 627.756 133.896 L 627.756 133.896 Q 623.076 133.896 619.476 134.112 L 619.476 134.112 L 619.476 134.112 Z  M 658.932 134.544 L 658.932 134.544 Q 655.98 134.544 652.956 133.536 L 652.956 133.536 L 652.956 140.736 L 652.956 140.736 Q 652.956 143.832 653.604 145.452 L 653.604 145.452 L 653.604 145.452 Q 654.252 147.072 655.584 147.684 L 655.584 147.684 L 655.584 147.684 Q 656.916 148.296 659.364 148.44 L 659.364 148.44 L 659.364 148.44 Q 659.724 149.448 659.724 151.536 L 659.724 151.536 L 659.724 151.536 Q 656.412 151.32 650.652 151.32 L 650.652 151.32 L 650.652 151.32 Q 643.956 151.32 641.148 151.536 L 641.148 151.536 L 641.148 151.536 Q 641.148 149.448 641.508 148.44 L 641.508 148.44 L 641.508 148.44 Q 644.388 148.296 645.432 147.036 L 645.432 147.036 L 645.432 147.036 Q 646.476 145.776 646.476 142.176 L 646.476 142.176 L 646.476 110.496 L 646.476 110.496 Q 646.476 108.624 646.08 107.58 L 646.08 107.58 L 646.08 107.58 Q 645.684 106.536 644.532 105.996 L 644.532 105.996 L 644.532 105.996 Q 643.38 105.456 641.076 105.384 L 641.076 105.384 L 641.076 105.384 Q 641.076 103.728 641.724 102.72 L 641.724 102.72 L 641.724 102.72 Q 643.956 102.576 646.836 101.856 L 646.836 101.856 L 646.836 101.856 Q 649.716 101.136 651.372 100.272 L 651.372 100.272 L 651.372 100.272 Q 652.956 100.776 652.956 103.44 L 652.956 103.44 L 652.956 103.44 Q 652.956 104.592 652.704 105.636 L 652.704 105.636 L 652.704 105.636 Q 652.452 106.68 651.876 108.624 L 651.876 108.624 L 651.876 108.624 Q 652.524 107.256 653.532 105.6 L 653.532 105.6 L 653.532 105.6 Q 654.684 103.656 657.384 101.964 L 657.384 101.964 L 657.384 101.964 Q 660.084 100.272 663.396 100.272 L 663.396 100.272 L 663.396 100.272 Q 669.876 100.272 673.368 104.088 L 673.368 104.088 L 673.368 104.088 Q 676.86 107.904 676.86 115.608 L 676.86 115.608 L 676.86 115.608 Q 676.86 120.936 674.628 125.256 L 674.628 125.256 L 674.628 125.256 Q 672.396 129.576 668.292 132.06 L 668.292 132.06 L 668.292 132.06 Q 664.188 134.544 658.932 134.544 L 658.932 134.544 L 658.932 134.544 Z  M 661.668 104.808 L 661.668 104.808 Q 658.068 104.808 655.512 108.192 L 655.512 108.192 L 655.512 108.192 Q 652.956 111.576 652.956 118.56 L 652.956 118.56 L 652.956 128.712 L 652.956 128.712 Q 654.324 129.936 655.8 130.584 L 655.8 130.584 L 655.8 130.584 Q 657.276 131.232 659.292 131.232 L 659.292 131.232 L 659.292 131.232 Q 661.668 131.232 664.044 130.008 L 664.044 130.008 L 664.044 130.008 Q 666.42 128.784 668.076 125.652 L 668.076 125.652 L 668.076 125.652 Q 669.732 122.52 669.732 117.192 L 669.732 117.192 L 669.732 117.192 Q 669.732 111.576 667.464 108.192 L 667.464 108.192 L 667.464 108.192 Q 665.196 104.808 661.668 104.808 L 661.668 104.808 L 661.668 104.808 Z  M 324.42 85.224 L 324.42 85.224 Q 328.668 85.224 331.764 85.008 L 331.764 85.008 L 331.764 85.008 Q 331.764 86.736 331.404 88.104 L 331.404 88.104 L 331.404 88.104 Q 329.316 88.608 328.056 90.552 L 328.056 90.552 L 328.056 90.552 Q 326.796 92.496 325.212 96.6 L 325.212 96.6 L 325.212 96.6 Q 318.084 114.888 310.164 134.04 L 310.164 134.04 L 310.164 134.04 Q 308.94 134.328 307.356 134.328 L 307.356 134.328 L 307.356 134.328 Q 299.004 111.792 292.452 96.384 L 292.452 96.384 L 292.452 96.384 Q 290.796 92.496 290.004 90.948 L 290.004 90.948 L 290.004 90.948 Q 289.212 89.4 288.456 88.824 L 288.456 88.824 L 288.456 88.824 Q 287.7 88.248 286.332 88.104 L 286.332 88.104 L 286.332 88.104 Q 285.972 86.664 285.972 85.008 L 285.972 85.008 L 285.972 85.008 Q 288.78 85.224 294.684 85.224 L 294.684 85.224 L 294.684 85.224 Q 299.292 85.224 303.396 85.008 L 303.396 85.008 L 303.396 85.008 Q 303.396 86.448 303.036 88.104 L 303.036 88.104 L 303.036 88.104 Q 300.588 88.248 299.544 88.788 L 299.544 88.788 L 299.544 88.788 Q 298.5 89.328 298.5 90.696 L 298.5 90.696 L 298.5 90.696 Q 298.5 92.28 300.156 96.024 L 300.156 96.024 L 300.156 96.024 Q 305.052 107.616 310.884 123.672 L 310.884 123.672 L 310.884 123.672 Q 317.148 109.416 321.612 96.888 L 321.612 96.888 L 321.612 96.888 Q 322.62 94.008 322.62 92.136 L 322.62 92.136 L 322.62 92.136 Q 322.62 90.336 321.684 89.364 L 321.684 89.364 L 321.684 89.364 Q 320.748 88.392 318.66 88.104 L 318.66 88.104 L 318.66 88.104 Q 318.3 86.736 318.3 85.008 L 318.3 85.008 L 318.3 85.008 Q 321.468 85.224 324.42 85.224 L 324.42 85.224 L 324.42 85.224 Z  M 362.076 123.384 L 362.076 123.384 Q 362.076 125.616 362.4 126.732 L 362.4 126.732 L 362.4 126.732 Q 362.724 127.848 363.66 128.352 L 363.66 128.352 L 363.66 128.352 Q 364.596 128.856 366.54 129 L 366.54 129 L 366.54 129 Q 366.54 131.088 366.108 132.312 L 366.108 132.312 L 366.108 132.312 Q 364.308 132.456 362.112 133.068 L 362.112 133.068 L 362.112 133.068 Q 359.916 133.68 358.26 134.544 L 358.26 134.544 L 358.26 134.544 Q 357.396 134.184 356.964 133.212 L 356.964 133.212 L 356.964 133.212 Q 356.532 132.24 356.532 130.296 L 356.532 130.296 L 356.532 130.296 Q 356.532 129.072 356.604 128.424 L 356.604 128.424 L 356.604 128.424 Q 355.74 130.512 354.084 131.952 L 354.084 131.952 L 354.084 131.952 Q 351.276 134.4 346.452 134.4 L 346.452 134.4 L 346.452 134.4 Q 341.988 134.4 339.576 132.384 L 339.576 132.384 L 339.576 132.384 Q 337.164 130.368 337.164 126.768 L 337.164 126.768 L 337.164 126.768 Q 337.164 122.52 340.26 119.964 L 340.26 119.964 L 340.26 119.964 Q 343.356 117.408 347.172 116.328 L 347.172 116.328 L 347.172 116.328 Q 350.988 115.248 355.596 114.6 L 355.596 114.6 L 355.596 114.6 Q 355.596 110.208 355.308 108.516 L 355.308 108.516 L 355.308 108.516 Q 355.02 106.824 354.084 105.672 L 354.084 105.672 L 354.084 105.672 Q 352.356 103.512 349.62 103.512 L 349.62 103.512 L 349.62 103.512 Q 346.38 103.512 344.904 106.176 L 344.904 106.176 L 344.904 106.176 Q 343.428 108.84 343.284 111.864 L 343.284 111.864 L 343.284 111.864 Q 342.348 111.864 341.196 111.72 L 341.196 111.72 L 341.196 111.72 Q 340.044 111.576 339.54 111.36 L 339.54 111.36 L 339.54 111.36 Q 339.612 110.64 339.612 108.912 L 339.612 108.912 L 339.612 108.912 Q 339.612 105.744 339.18 103.512 L 339.18 103.512 L 339.18 103.512 Q 342.06 102 345.372 101.136 L 345.372 101.136 L 345.372 101.136 Q 348.684 100.272 351.42 100.272 L 351.42 100.272 L 351.42 100.272 Q 356.316 100.272 359.052 103.008 L 359.052 103.008 L 359.052 103.008 Q 360.78 104.736 361.428 107.58 L 361.428 107.58 L 361.428 107.58 Q 362.076 110.424 362.076 115.464 L 362.076 115.464 L 362.076 123.384 L 362.076 123.384 Z  M 355.596 120.288 L 355.596 117.552 L 355.596 117.552 Q 352.14 117.984 349.836 118.596 L 349.836 118.596 L 349.836 118.596 Q 347.532 119.208 345.84 120.828 L 345.84 120.828 L 345.84 120.828 Q 344.148 122.448 344.148 125.328 L 344.148 125.328 L 344.148 125.328 Q 344.148 127.848 345.372 129.144 L 345.372 129.144 L 345.372 129.144 Q 346.596 130.44 348.468 130.44 L 348.468 130.44 L 348.468 130.44 Q 350.196 130.44 351.816 129.36 L 351.816 129.36 L 351.816 129.36 Q 353.436 128.28 354.516 125.976 L 354.516 125.976 L 354.516 125.976 Q 355.596 123.672 355.596 120.288 L 355.596 120.288 L 355.596 120.288 Z  M 372.012 134.112 L 372.012 134.112 Q 372.012 132.168 372.372 131.016 L 372.372 131.016 L 372.372 131.016 Q 375.252 131.016 376.296 129.684 L 376.296 129.684 L 376.296 129.684 Q 377.34 128.352 377.34 124.752 L 377.34 124.752 L 377.34 92.496 L 377.34 92.496 Q 377.34 90.624 376.98 89.544 L 376.98 89.544 L 376.98 89.544 Q 376.62 88.464 375.468 87.924 L 375.468 87.924 L 375.468 87.924 Q 374.316 87.384 371.94 87.384 L 371.94 87.384 L 371.94 87.384 Q 371.94 85.728 372.588 84.72 L 372.588 84.72 L 372.588 84.72 Q 374.388 84.72 377.7 83.928 L 377.7 83.928 L 377.7 83.928 Q 381.012 83.136 382.236 82.272 L 382.236 82.272 L 382.236 82.272 Q 383.82 82.776 383.82 85.152 L 383.82 85.152 L 383.82 124.752 L 383.82 124.752 Q 383.82 128.352 384.756 129.684 L 384.756 129.684 L 384.756 129.684 Q 385.692 131.016 388.068 131.016 L 388.068 131.016 L 388.068 131.016 Q 388.428 132.24 388.428 134.112 L 388.428 134.112 L 388.428 134.112 Q 384.684 133.896 380.292 133.896 L 380.292 133.896 L 380.292 133.896 Q 375.612 133.896 372.012 134.112 L 372.012 134.112 L 372.012 134.112 Z  M 424.212 124.104 L 424.212 124.104 Q 424.212 126.84 425.04 127.92 L 425.04 127.92 L 425.04 127.92 Q 425.868 129 428.676 129 L 428.676 129 L 428.676 129 Q 428.676 131.088 428.244 132.312 L 428.244 132.312 L 428.244 132.312 Q 426.372 132.456 423.996 133.068 L 423.996 133.068 L 423.996 133.068 Q 421.62 133.68 420.036 134.544 L 420.036 134.544 L 420.036 134.544 Q 419.1 134.112 418.668 133.356 L 418.668 133.356 L 418.668 133.356 Q 418.236 132.6 418.236 130.368 L 418.236 130.368 L 418.236 130.368 Q 418.236 128.784 418.452 127.344 L 418.452 127.344 L 418.452 127.344 Q 417.804 128.856 416.148 130.512 L 416.148 130.512 L 416.148 130.512 Q 414.204 132.456 412.116 133.32 L 412.116 133.32 L 412.116 133.32 Q 410.028 134.184 407.148 134.184 L 407.148 134.184 L 407.148 134.184 Q 402.036 134.184 399.444 131.232 L 399.444 131.232 L 399.444 131.232 Q 396.852 128.28 396.852 121.368 L 396.852 121.368 L 396.852 110.496 L 396.852 110.496 Q 396.852 108.552 396.564 107.544 L 396.564 107.544 L 396.564 107.544 Q 396.276 106.536 395.268 105.996 L 395.268 105.996 L 395.268 105.996 Q 394.26 105.456 392.1 105.384 L 392.1 105.384 L 392.1 105.384 Q 392.1 103.728 392.604 102.72 L 392.604 102.72 L 392.604 102.72 Q 394.836 102.576 397.464 101.856 L 397.464 101.856 L 397.464 101.856 Q 400.092 101.136 401.748 100.272 L 401.748 100.272 L 401.748 100.272 Q 403.332 100.776 403.332 103.44 L 403.332 103.44 L 403.332 119.784 L 403.332 119.784 Q 403.332 124.824 404.7 127.308 L 404.7 127.308 L 404.7 127.308 Q 406.068 129.792 409.308 129.792 L 409.308 129.792 L 409.308 129.792 Q 413.052 129.792 415.392 126.66 L 415.392 126.66 L 415.392 126.66 Q 417.732 123.528 417.732 117.48 L 417.732 117.48 L 417.732 110.136 L 417.732 110.136 Q 417.732 108.264 417.336 107.22 L 417.336 107.22 L 417.336 107.22 Q 416.94 106.176 415.788 105.636 L 415.788 105.636 L 415.788 105.636 Q 414.636 105.096 412.332 105.024 L 412.332 105.024 L 412.332 105.024 Q 412.332 104.016 412.404 103.476 L 412.404 103.476 L 412.404 103.476 Q 412.476 102.936 412.836 102.36 L 412.836 102.36 L 412.836 102.36 Q 415.572 102.216 418.272 101.64 L 418.272 101.64 L 418.272 101.64 Q 420.972 101.064 422.628 100.272 L 422.628 100.272 L 422.628 100.272 Q 424.212 100.776 424.212 103.44 L 424.212 103.44 L 424.212 124.104 L 424.212 124.104 Z  M 460.788 126.336 L 460.788 126.336 Q 461.364 126.696 461.904 127.344 L 461.904 127.344 L 461.904 127.344 Q 462.444 127.992 462.516 128.568 L 462.516 128.568 L 462.516 128.568 Q 460.068 131.736 456.936 133.14 L 456.936 133.14 L 456.936 133.14 Q 453.804 134.544 449.7 134.544 L 449.7 134.544 L 449.7 134.544 Q 444.732 134.544 441.312 132.276 L 441.312 132.276 L 441.312 132.276 Q 437.892 130.008 436.164 126.12 L 436.164 126.12 L 436.164 126.12 Q 434.436 122.232 434.436 117.408 L 434.436 117.408 L 434.436 117.408 Q 434.436 112.728 436.272 108.84 L 436.272 108.84 L 436.272 108.84 Q 438.108 104.952 441.492 102.612 L 441.492 102.612 L 441.492 102.612 Q 444.876 100.272 449.34 100.272 L 449.34 100.272 L 449.34 100.272 Q 455.892 100.272 459.096 104.34 L 459.096 104.34 L 459.096 104.34 Q 462.3 108.408 462.804 115.176 L 462.804 115.176 L 462.804 115.176 Q 462.516 116.616 461.724 117.624 L 461.724 117.624 L 461.724 117.624 Q 449.052 117.624 441.564 117.984 L 441.564 117.984 L 441.564 117.984 Q 441.924 123.528 444.336 127.02 L 444.336 127.02 L 444.336 127.02 Q 446.748 130.512 452.004 130.512 L 452.004 130.512 L 452.004 130.512 Q 454.452 130.512 456.756 129.432 L 456.756 129.432 L 456.756 129.432 Q 459.06 128.352 460.788 126.336 L 460.788 126.336 L 460.788 126.336 Z  M 448.692 103.728 L 448.692 103.728 Q 445.812 103.728 443.796 106.176 L 443.796 106.176 L 443.796 106.176 Q 441.78 108.624 441.492 114.384 L 441.492 114.384 L 455.316 114.384 L 455.316 114.384 Q 455.316 109.56 453.552 106.644 L 453.552 106.644 L 453.552 106.644 Q 451.788 103.728 448.692 103.728 L 448.692 103.728 L 448.692 103.728 Z  M 187.044 107.472 L 187.044 107.472 Q 201.156 108.264 201.156 119.712 L 201.156 119.712 L 201.156 119.712 Q 201.156 126.048 196.872 129.972 L 196.872 129.972 L 196.872 129.972 Q 192.588 133.896 183.876 133.896 L 183.876 133.896 L 183.876 133.896 Q 169.692 133.896 164.292 134.112 L 164.292 134.112 L 164.292 134.112 Q 164.292 132.024 164.652 131.016 L 164.652 131.016 L 164.652 131.016 Q 166.668 130.872 167.712 130.296 L 167.712 130.296 L 167.712 130.296 Q 168.756 129.72 169.224 128.244 L 169.224 128.244 L 169.224 128.244 Q 169.692 126.768 169.692 123.96 L 169.692 123.96 L 169.692 94.368 L 169.692 94.368 Q 169.692 90.768 168.648 89.508 L 168.648 89.508 L 168.648 89.508 Q 167.604 88.248 164.724 88.104 L 164.724 88.104 L 164.724 88.104 Q 164.364 87.096 164.364 85.008 L 164.364 85.008 L 164.364 85.008 Q 167.244 85.224 171.852 85.224 L 171.852 85.224 L 177.036 85.152 L 177.036 85.152 Q 178.764 85.08 182.148 85.08 L 182.148 85.08 L 182.148 85.08 Q 189.204 85.08 193.344 87.42 L 193.344 87.42 L 193.344 87.42 Q 197.484 89.76 197.484 95.592 L 197.484 95.592 L 197.484 95.592 Q 197.484 100.272 194.64 103.512 L 194.64 103.512 L 194.64 103.512 Q 191.796 106.752 187.044 107.472 L 187.044 107.472 L 187.044 107.472 Z  M 190.14 97.752 L 190.14 97.752 Q 190.14 92.712 186.936 90.48 L 186.936 90.48 L 186.936 90.48 Q 183.732 88.248 179.412 88.248 L 179.412 88.248 L 179.412 88.248 Q 177.828 88.248 176.46 88.608 L 176.46 88.608 L 176.46 106.896 L 178.692 106.896 L 178.692 106.896 Q 190.14 106.896 190.14 97.752 L 190.14 97.752 L 190.14 97.752 Z  M 183.156 130.8 L 183.156 130.8 Q 188.34 130.8 190.896 128.172 L 190.896 128.172 L 190.896 128.172 Q 193.452 125.544 193.452 120.72 L 193.452 120.72 L 193.452 120.72 Q 193.452 109.992 178.116 109.992 L 178.116 109.992 L 176.46 109.992 L 176.46 123.96 L 176.46 123.96 Q 176.46 126.984 177 128.388 L 177 128.388 L 177 128.388 Q 177.54 129.792 178.908 130.296 L 178.908 130.296 L 178.908 130.296 Q 180.276 130.8 183.156 130.8 L 183.156 130.8 L 183.156 130.8 Z  M 215.772 92.136 L 215.772 92.136 Q 213.972 92.136 212.748 90.912 L 212.748 90.912 L 212.748 90.912 Q 211.524 89.688 211.524 87.96 L 211.524 87.96 L 211.524 87.96 Q 211.524 86.088 212.784 84.828 L 212.784 84.828 L 212.784 84.828 Q 214.044 83.568 215.772 83.568 L 215.772 83.568 L 215.772 83.568 Q 217.716 83.568 218.904 84.792 L 218.904 84.792 L 218.904 84.792 Q 220.092 86.016 220.092 87.96 L 220.092 87.96 L 220.092 87.96 Q 220.092 89.616 218.832 90.876 L 218.832 90.876 L 218.832 90.876 Q 217.572 92.136 215.772 92.136 L 215.772 92.136 L 215.772 92.136 Z  M 207.78 134.112 L 207.78 134.112 Q 207.78 132.168 208.14 131.016 L 208.14 131.016 L 208.14 131.016 Q 211.02 131.016 212.064 129.684 L 212.064 129.684 L 212.064 129.684 Q 213.108 128.352 213.108 124.752 L 213.108 124.752 L 213.108 110.496 L 213.108 110.496 Q 213.108 108.624 212.748 107.544 L 212.748 107.544 L 212.748 107.544 Q 212.388 106.464 211.236 105.924 L 211.236 105.924 L 211.236 105.924 Q 210.084 105.384 207.708 105.384 L 207.708 105.384 L 207.708 105.384 Q 207.708 103.728 208.356 102.72 L 208.356 102.72 L 208.356 102.72 Q 210.156 102.72 213.468 101.928 L 213.468 101.928 L 213.468 101.928 Q 216.78 101.136 218.004 100.272 L 218.004 100.272 L 218.004 100.272 Q 219.588 100.776 219.588 103.152 L 219.588 103.152 L 219.588 124.752 L 219.588 124.752 Q 219.588 128.352 220.524 129.684 L 220.524 129.684 L 220.524 129.684 Q 221.46 131.016 223.836 131.016 L 223.836 131.016 L 223.836 131.016 Q 224.196 132.24 224.196 134.112 L 224.196 134.112 L 224.196 134.112 Q 220.452 133.896 216.06 133.896 L 216.06 133.896 L 216.06 133.896 Q 211.38 133.896 207.78 134.112 L 207.78 134.112 L 207.78 134.112 Z  M 266.82 131.016 L 266.82 131.016 Q 267.18 132.096 267.18 134.112 L 267.18 134.112 L 267.18 134.112 Q 264.084 133.896 259.332 133.896 L 259.332 133.896 L 259.332 133.896 Q 256.38 133.896 252.204 134.04 L 252.204 134.04 L 252.204 134.04 Q 251.7 134.112 250.764 134.112 L 250.764 134.112 L 250.764 134.112 Q 250.764 132.024 251.124 131.016 L 251.124 131.016 L 251.124 131.016 Q 253.788 131.016 254.94 129.648 L 254.94 129.648 L 254.94 129.648 Q 256.092 128.28 256.092 124.752 L 256.092 124.752 L 256.092 113.808 L 256.092 113.808 Q 256.092 109.056 254.328 107.04 L 254.328 107.04 L 254.328 107.04 Q 252.564 105.024 249.396 105.024 L 249.396 105.024 L 249.396 105.024 Q 247.38 105.024 245.508 106.248 L 245.508 106.248 L 245.508 106.248 Q 243.636 107.472 242.448 110.208 L 242.448 110.208 L 242.448 110.208 Q 241.26 112.944 241.26 117.048 L 241.26 117.048 L 241.26 124.752 L 241.26 124.752 Q 241.26 128.352 242.34 129.684 L 242.34 129.684 L 242.34 129.684 Q 243.42 131.016 246.228 131.016 L 246.228 131.016 L 246.228 131.016 Q 246.588 132.096 246.588 134.112 L 246.588 134.112 L 246.588 134.112 Q 240.54 133.896 238.02 133.896 L 238.02 133.896 L 238.02 133.896 Q 232.548 133.896 229.452 134.112 L 229.452 134.112 L 229.452 134.112 Q 229.452 132.024 229.812 131.016 L 229.812 131.016 L 229.812 131.016 Q 232.62 131.016 233.7 129.684 L 233.7 129.684 L 233.7 129.684 Q 234.78 128.352 234.78 124.752 L 234.78 124.752 L 234.78 110.496 L 234.78 110.496 Q 234.78 108.624 234.384 107.58 L 234.384 107.58 L 234.384 107.58 Q 233.988 106.536 232.836 105.996 L 232.836 105.996 L 232.836 105.996 Q 231.684 105.456 229.38 105.384 L 229.38 105.384 L 229.38 105.384 Q 229.38 103.728 230.028 102.72 L 230.028 102.72 L 230.028 102.72 Q 232.26 102.576 235.14 101.856 L 235.14 101.856 L 235.14 101.856 Q 238.02 101.136 239.676 100.272 L 239.676 100.272 L 239.676 100.272 Q 241.26 100.776 241.26 103.44 L 241.26 103.44 L 241.26 103.44 Q 241.26 105.744 240.756 107.688 L 240.756 107.688 L 240.756 107.688 Q 240.9 107.472 241.152 106.932 L 241.152 106.932 L 241.152 106.932 Q 241.404 106.392 241.836 105.816 L 241.836 105.816 L 241.836 105.816 Q 243.276 103.8 246.048 102.216 L 246.048 102.216 L 246.048 102.216 Q 248.82 100.632 252.276 100.632 L 252.276 100.632 L 252.276 100.632 Q 256.812 100.632 259.692 103.44 L 259.692 103.44 L 259.692 103.44 Q 262.572 106.248 262.572 112.368 L 262.572 112.368 L 262.572 124.752 L 262.572 124.752 Q 262.572 128.352 263.58 129.684 L 263.58 129.684 L 263.58 129.684 Q 264.588 131.016 266.82 131.016 L 266.82 131.016 L 266.82 131.016 Z " fill-rule="evenodd" fill="rgb(0,0,0)"/></g><g style="isolation:isolate"><g style="isolation:isolate"><circle vector-effect="non-scaling-stroke" cx="329" cy="411" r="19" fill="rgb(215,211,211)"/><line x1="329" y1="445" x2="329" y2="433" vector-effect="non-scaling-stroke" stroke-width="2" stroke="rgb(154,154,158)" stroke-linejoin="miter" stroke-linecap="square" stroke-miterlimit="3"/></g><g style="isolation:isolate"><line x1="350" y1="412" x2="490" y2="369" vector-effect="non-scaling-stroke" stroke-width="2" stroke="rgb(154,154,158)" stroke-linejoin="miter" stroke-linecap="square" stroke-miterlimit="3"/><circle vector-effect="non-scaling-stroke" cx="512" cy="369" r="19" fill="rgb(215,211,211)"/><line x1="512" y1="445" x2="512" y2="390" vector-effect="non-scaling-stroke" stroke-width="2" stroke="rgb(154,154,158)" stroke-linejoin="miter" stroke-linecap="square" stroke-miterlimit="3"/></g><g style="isolation:isolate"><line x1="145" y1="445" x2="145" y2="390" vector-effect="non-scaling-stroke" stroke-width="2" stroke="rgb(154,154,158)" stroke-linejoin="miter" stroke-linecap="square" stroke-miterlimit="3"/><circle vector-effect="non-scaling-stroke" cx="145" cy="369" r="19" fill="rgb(215,211,211)"/><line x1="166" y1="371" x2="308" y2="412" vector-effect="non-scaling-stroke" stroke-width="2" stroke="rgb(154,154,158)" stroke-linejoin="miter" stroke-linecap="square" stroke-miterlimit="3"/></g><g style="isolation:isolate"><line x1="166" y1="369" x2="308" y2="357" vector-effect="non-scaling-stroke" stroke-width="2" stroke="rgb(154,154,158)" stroke-linejoin="miter" stroke-linecap="square" stroke-miterlimit="3"/><circle vector-effect="non-scaling-stroke" cx="329.00000000000006" cy="358" r="19" fill="rgb(215,211,211)"/><line x1="329" y1="390" x2="329" y2="379" vector-effect="non-scaling-stroke" stroke-width="2" stroke="rgb(154,154,158)" stroke-linejoin="miter" stroke-linecap="square" stroke-miterlimit="3"/></g><g style="isolation:isolate"><line x1="696" y1="445" x2="696" y2="357" vector-effect="non-scaling-stroke" stroke-width="2" stroke="rgb(154,154,158)" stroke-linejoin="miter" stroke-linecap="square" stroke-miterlimit="3"/><line x1="533" y1="367" x2="675" y2="338" vector-effect="non-scaling-stroke" stroke-width="2" stroke="rgb(154,154,158)" stroke-linejoin="miter" stroke-linecap="square" stroke-miterlimit="3"/><circle vector-effect="non-scaling-stroke" cx="696" cy="336" r="19" fill="rgb(215,211,211)"/></g><g style="isolation:isolate"><line x1="490" y1="367" x2="166" y2="285" vector-effect="non-scaling-stroke" stroke-width="2" stroke="rgb(154,154,158)" stroke-linejoin="miter" stroke-linecap="square" stroke-miterlimit="3"/><line x1="145" y1="348" x2="145" y2="303" vector-effect="non-scaling-stroke" stroke-width="2" stroke="rgb(154,154,158)" stroke-linejoin="miter" stroke-linecap="square" stroke-miterlimit="3"/><circle vector-effect="non-scaling-stroke" cx="145" cy="282" r="19" fill="rgb(215,211,211)"/></g><g style="isolation:isolate"><line x1="512" y1="348" x2="512" y2="330" vector-effect="non-scaling-stroke" stroke-width="2" stroke="rgb(154,154,158)" stroke-linejoin="miter" stroke-linecap="square" stroke-miterlimit="3"/><circle vector-effect="non-scaling-stroke" cx="512" cy="309" r="19" fill="rgb(215,211,211)"/><line x1="533" y1="307" x2="675" y2="336" vector-effect="non-scaling-stroke" stroke-width="2" stroke="rgb(154,154,158)" stroke-linejoin="miter" stroke-linecap="square" stroke-miterlimit="3"/></g><g style="isolation:isolate"><line x1="329" y1="337" x2="329" y2="303" vector-effect="non-scaling-stroke" stroke-width="2" stroke="rgb(154,154,158)" stroke-linejoin="miter" stroke-linecap="square" stroke-miterlimit="3"/><line x1="350" y1="284" x2="491" y2="307" vector-effect="non-scaling-stroke" stroke-width="2" stroke="rgb(154,154,158)" stroke-linejoin="miter" stroke-linecap="square" stroke-miterlimit="3"/><circle vector-effect="non-scaling-stroke" cx="329" cy="282" r="19" fill="rgb(215,211,211)"/></g><g style="isolation:isolate"><line x1="350" y1="357" x2="490" y2="256" vector-effect="non-scaling-stroke" stroke-width="2" stroke="rgb(154,154,158)" stroke-linejoin="miter" stroke-linecap="square" stroke-miterlimit="3"/><line x1="512" y1="288" x2="512" y2="277" vector-effect="non-scaling-stroke" stroke-width="2" stroke="rgb(154,154,158)" stroke-linejoin="miter" stroke-linecap="square" stroke-miterlimit="3"/><circle vector-effect="non-scaling-stroke" cx="512" cy="256" r="19" fill="rgb(215,211,211)"/></g><g style="isolation:isolate"><line x1="166" y1="231" x2="308" y2="284" vector-effect="non-scaling-stroke" stroke-width="2" stroke="rgb(154,154,158)" stroke-linejoin="miter" stroke-linecap="square" stroke-miterlimit="3"/><circle vector-effect="non-scaling-stroke" cx="145" cy="231" r="19" fill="rgb(215,211,211)"/><line x1="145" y1="261" x2="145" y2="252" vector-effect="non-scaling-stroke" stroke-width="2" stroke="rgb(154,154,158)" stroke-linejoin="miter" stroke-linecap="square" stroke-miterlimit="3"/></g><g style="isolation:isolate"><line x1="695" y1="315" x2="695" y2="252" vector-effect="non-scaling-stroke" stroke-width="2" stroke="rgb(154,154,158)" stroke-linejoin="miter" stroke-linecap="square" stroke-miterlimit="3"/><line x1="533" y1="256" x2="673" y2="231" vector-effect="non-scaling-stroke" stroke-width="2" stroke="rgb(154,154,158)" stroke-linejoin="miter" stroke-linecap="square" stroke-miterlimit="3"/><circle vector-effect="non-scaling-stroke" cx="695.0000000000001" cy="231.00000000000003" r="19" fill="rgb(215,211,211)"/></g></g><g style="isolation:isolate"><path d=" M 692.373 238.759 L 692.158 237.323 L 692.07 237.323 L 692.07 237.323 Q 690.947 238.954 688.711 238.954 L 688.711 238.954 L 688.711 238.954 Q 686.611 238.954 685.444 237.519 L 685.444 237.519 L 685.444 237.519 Q 684.277 236.083 684.277 233.437 L 684.277 233.437 L 684.277 233.437 Q 684.277 230.79 685.449 229.325 L 685.449 229.325 L 685.449 229.325 Q 686.621 227.86 688.711 227.86 L 688.711 227.86 L 688.711 227.86 Q 690.889 227.86 692.051 229.442 L 692.051 229.442 L 692.178 229.442 L 692.109 228.671 L 692.07 227.919 L 692.07 223.563 L 693.691 223.563 L 693.691 238.759 L 692.373 238.759 L 692.373 238.759 Z  M 688.916 237.597 L 688.916 237.597 L 688.916 237.597 Q 690.576 237.597 691.323 236.693 L 691.323 236.693 L 691.323 236.693 Q 692.07 235.79 692.07 233.778 L 692.07 233.778 L 692.07 233.437 L 692.07 233.437 Q 692.07 231.161 691.313 230.189 L 691.313 230.189 L 691.313 230.189 Q 690.557 229.218 688.896 229.218 L 688.896 229.218 L 688.896 229.218 Q 687.471 229.218 686.714 230.326 L 686.714 230.326 L 686.714 230.326 Q 685.957 231.435 685.957 233.456 L 685.957 233.456 L 685.957 233.456 Q 685.957 235.507 686.709 236.552 L 686.709 236.552 L 686.709 236.552 Q 687.461 237.597 688.916 237.597 Z  M 702.393 224.481 L 702.393 238.759 L 700.811 238.759 L 700.811 228.583 L 700.811 228.583 Q 700.811 227.313 700.889 226.181 L 700.889 226.181 L 700.889 226.181 Q 700.684 226.386 700.43 226.61 L 700.43 226.61 L 700.43 226.61 Q 700.176 226.835 698.105 228.515 L 698.105 228.515 L 697.246 227.401 L 701.025 224.481 L 702.393 224.481 L 702.393 224.481 Z " fill-rule="evenodd" fill="rgb(139,139,139)"/><path d=" M 506.518 263.954 L 506.518 263.954 L 506.518 263.954 Q 504.193 263.954 502.919 262.523 L 502.919 262.523 L 502.919 262.523 Q 501.645 261.093 501.645 258.476 L 501.645 258.476 L 501.645 258.476 Q 501.645 255.79 502.938 254.325 L 502.938 254.325 L 502.938 254.325 Q 504.232 252.86 506.625 252.86 L 506.625 252.86 L 506.625 252.86 Q 507.396 252.86 508.168 253.026 L 508.168 253.026 L 508.168 253.026 Q 508.939 253.192 509.379 253.417 L 509.379 253.417 L 508.881 254.794 L 508.881 254.794 Q 508.344 254.579 507.709 254.438 L 507.709 254.438 L 507.709 254.438 Q 507.074 254.296 506.586 254.296 L 506.586 254.296 L 506.586 254.296 Q 503.324 254.296 503.324 258.456 L 503.324 258.456 L 503.324 258.456 Q 503.324 260.429 504.12 261.483 L 504.12 261.483 L 504.12 261.483 Q 504.916 262.538 506.479 262.538 L 506.479 262.538 L 506.479 262.538 Q 507.816 262.538 509.223 261.962 L 509.223 261.962 L 509.223 263.397 L 509.223 263.397 Q 508.148 263.954 506.518 263.954 Z  M 520.404 262.255 L 520.404 263.759 L 511.02 263.759 L 511.02 262.362 L 514.779 258.583 L 514.779 258.583 Q 516.498 256.845 517.045 256.103 L 517.045 256.103 L 517.045 256.103 Q 517.592 255.36 517.865 254.657 L 517.865 254.657 L 517.865 254.657 Q 518.139 253.954 518.139 253.144 L 518.139 253.144 L 518.139 253.144 Q 518.139 252.001 517.445 251.332 L 517.445 251.332 L 517.445 251.332 Q 516.752 250.663 515.521 250.663 L 515.521 250.663 L 515.521 250.663 Q 514.633 250.663 513.837 250.956 L 513.837 250.956 L 513.837 250.956 Q 513.041 251.249 512.064 252.021 L 512.064 252.021 L 511.205 250.917 L 511.205 250.917 Q 513.178 249.276 515.502 249.276 L 515.502 249.276 L 515.502 249.276 Q 517.514 249.276 518.656 250.307 L 518.656 250.307 L 518.656 250.307 Q 519.799 251.337 519.799 253.075 L 519.799 253.075 L 519.799 253.075 Q 519.799 254.433 519.037 255.761 L 519.037 255.761 L 519.037 255.761 Q 518.275 257.089 516.186 259.12 L 516.186 259.12 L 513.061 262.177 L 513.061 262.255 L 520.404 262.255 L 520.404 262.255 Z " fill-rule="evenodd" fill="rgb(139,139,139)"/><path d=" M 506.518 316.954 L 506.518 316.954 L 506.518 316.954 Q 504.193 316.954 502.919 315.523 L 502.919 315.523 L 502.919 315.523 Q 501.645 314.093 501.645 311.476 L 501.645 311.476 L 501.645 311.476 Q 501.645 308.79 502.938 307.325 L 502.938 307.325 L 502.938 307.325 Q 504.232 305.86 506.625 305.86 L 506.625 305.86 L 506.625 305.86 Q 507.396 305.86 508.168 306.026 L 508.168 306.026 L 508.168 306.026 Q 508.939 306.192 509.379 306.417 L 509.379 306.417 L 508.881 307.794 L 508.881 307.794 Q 508.344 307.579 507.709 307.438 L 507.709 307.438 L 507.709 307.438 Q 507.074 307.296 506.586 307.296 L 506.586 307.296 L 506.586 307.296 Q 503.324 307.296 503.324 311.456 L 503.324 311.456 L 503.324 311.456 Q 503.324 313.429 504.12 314.483 L 504.12 314.483 L 504.12 314.483 Q 504.916 315.538 506.479 315.538 L 506.479 315.538 L 506.479 315.538 Q 507.816 315.538 509.223 314.962 L 509.223 314.962 L 509.223 316.397 L 509.223 316.397 Q 508.148 316.954 506.518 316.954 Z  M 517.025 302.481 L 517.025 316.759 L 515.443 316.759 L 515.443 306.583 L 515.443 306.583 Q 515.443 305.313 515.521 304.181 L 515.521 304.181 L 515.521 304.181 Q 515.316 304.386 515.063 304.61 L 515.063 304.61 L 515.063 304.61 Q 514.809 304.835 512.738 306.515 L 512.738 306.515 L 511.879 305.401 L 515.658 302.481 L 517.025 302.481 L 517.025 302.481 Z " fill-rule="evenodd" fill="rgb(139,139,139)"/><path d=" M 322.854 279.38 L 322.854 279.38 L 322.854 279.38 Q 324.963 279.38 326.13 280.82 L 326.13 280.82 L 326.13 280.82 Q 327.297 282.261 327.297 284.897 L 327.297 284.897 L 327.297 284.897 Q 327.297 287.534 326.12 288.994 L 326.12 288.994 L 326.12 288.994 Q 324.943 290.454 322.854 290.454 L 322.854 290.454 L 322.854 290.454 Q 321.809 290.454 320.944 290.068 L 320.944 290.068 L 320.944 290.068 Q 320.08 289.683 319.494 288.882 L 319.494 288.882 L 319.377 288.882 L 319.035 290.259 L 317.873 290.259 L 317.873 275.063 L 319.494 275.063 L 319.494 278.755 L 319.494 278.755 Q 319.494 279.995 319.416 280.981 L 319.416 280.981 L 319.494 280.981 L 319.494 280.981 Q 320.627 279.38 322.854 279.38 Z  M 322.619 280.737 L 322.619 280.737 L 322.619 280.737 Q 320.959 280.737 320.227 281.689 L 320.227 281.689 L 320.227 281.689 Q 319.494 282.642 319.494 284.897 L 319.494 284.897 L 319.494 284.897 Q 319.494 287.153 320.246 288.125 L 320.246 288.125 L 320.246 288.125 Q 320.998 289.097 322.658 289.097 L 322.658 289.097 L 322.658 289.097 Q 324.152 289.097 324.885 288.008 L 324.885 288.008 L 324.885 288.008 Q 325.617 286.919 325.617 284.878 L 325.617 284.878 L 325.617 284.878 Q 325.617 282.788 324.885 281.763 L 324.885 281.763 L 324.885 281.763 Q 324.152 280.737 322.619 280.737 Z  M 338.771 288.755 L 338.771 290.259 L 329.387 290.259 L 329.387 288.862 L 333.146 285.083 L 333.146 285.083 Q 334.865 283.345 335.412 282.603 L 335.412 282.603 L 335.412 282.603 Q 335.959 281.86 336.232 281.157 L 336.232 281.157 L 336.232 281.157 Q 336.506 280.454 336.506 279.644 L 336.506 279.644 L 336.506 279.644 Q 336.506 278.501 335.813 277.832 L 335.813 277.832 L 335.813 277.832 Q 335.119 277.163 333.889 277.163 L 333.889 277.163 L 333.889 277.163 Q 333 277.163 332.204 277.456 L 332.204 277.456 L 332.204 277.456 Q 331.408 277.749 330.432 278.521 L 330.432 278.521 L 329.572 277.417 L 329.572 277.417 Q 331.545 275.776 333.869 275.776 L 333.869 275.776 L 333.869 275.776 Q 335.881 275.776 337.023 276.807 L 337.023 276.807 L 337.023 276.807 Q 338.166 277.837 338.166 279.575 L 338.166 279.575 L 338.166 279.575 Q 338.166 280.933 337.404 282.261 L 337.404 282.261 L 337.404 282.261 Q 336.643 283.589 334.553 285.62 L 334.553 285.62 L 331.428 288.677 L 331.428 288.755 L 338.771 288.755 L 338.771 288.755 Z " fill-rule="evenodd" fill="rgb(139,139,139)"/><path d=" M 322.854 353.88 L 322.854 353.88 L 322.854 353.88 Q 324.963 353.88 326.13 355.32 L 326.13 355.32 L 326.13 355.32 Q 327.297 356.761 327.297 359.397 L 327.297 359.397 L 327.297 359.397 Q 327.297 362.034 326.12 363.494 L 326.12 363.494 L 326.12 363.494 Q 324.943 364.954 322.854 364.954 L 322.854 364.954 L 322.854 364.954 Q 321.809 364.954 320.944 364.568 L 320.944 364.568 L 320.944 364.568 Q 320.08 364.183 319.494 363.382 L 319.494 363.382 L 319.377 363.382 L 319.035 364.759 L 317.873 364.759 L 317.873 349.563 L 319.494 349.563 L 319.494 353.255 L 319.494 353.255 Q 319.494 354.495 319.416 355.481 L 319.416 355.481 L 319.494 355.481 L 319.494 355.481 Q 320.627 353.88 322.854 353.88 Z  M 322.619 355.237 L 322.619 355.237 L 322.619 355.237 Q 320.959 355.237 320.227 356.189 L 320.227 356.189 L 320.227 356.189 Q 319.494 357.142 319.494 359.397 L 319.494 359.397 L 319.494 359.397 Q 319.494 361.653 320.246 362.625 L 320.246 362.625 L 320.246 362.625 Q 320.998 363.597 322.658 363.597 L 322.658 363.597 L 322.658 363.597 Q 324.152 363.597 324.885 362.508 L 324.885 362.508 L 324.885 362.508 Q 325.617 361.419 325.617 359.378 L 325.617 359.378 L 325.617 359.378 Q 325.617 357.288 324.885 356.263 L 324.885 356.263 L 324.885 356.263 Q 324.152 355.237 322.619 355.237 Z  M 335.393 350.481 L 335.393 364.759 L 333.811 364.759 L 333.811 354.583 L 333.811 354.583 Q 333.811 353.313 333.889 352.181 L 333.889 352.181 L 333.889 352.181 Q 333.684 352.386 333.43 352.61 L 333.43 352.61 L 333.43 352.61 Q 333.176 352.835 331.105 354.515 L 331.105 354.515 L 330.246 353.401 L 334.025 350.481 L 335.393 350.481 L 335.393 350.481 Z " fill-rule="evenodd" fill="rgb(139,139,139)"/><path d=" M 142.223 238.759 L 141.021 238.759 L 140.699 237.235 L 140.621 237.235 L 140.621 237.235 Q 139.82 238.241 139.024 238.598 L 139.024 238.598 L 139.024 238.598 Q 138.229 238.954 137.037 238.954 L 137.037 238.954 L 137.037 238.954 Q 135.445 238.954 134.542 238.134 L 134.542 238.134 L 134.542 238.134 Q 133.639 237.313 133.639 235.8 L 133.639 235.8 L 133.639 235.8 Q 133.639 232.558 138.824 232.401 L 138.824 232.401 L 140.641 232.343 L 140.641 231.679 L 140.641 231.679 Q 140.641 230.419 140.099 229.818 L 140.099 229.818 L 140.099 229.818 Q 139.557 229.218 138.365 229.218 L 138.365 229.218 L 138.365 229.218 Q 137.027 229.218 135.338 230.038 L 135.338 230.038 L 134.84 228.798 L 134.84 228.798 Q 135.631 228.368 136.573 228.124 L 136.573 228.124 L 136.573 228.124 Q 137.516 227.88 138.463 227.88 L 138.463 227.88 L 138.463 227.88 Q 140.377 227.88 141.3 228.729 L 141.3 228.729 L 141.3 228.729 Q 142.223 229.579 142.223 231.454 L 142.223 231.454 L 142.223 238.759 L 142.223 238.759 Z  M 137.359 237.616 L 137.359 237.616 L 137.359 237.616 Q 138.873 237.616 139.737 236.786 L 139.737 236.786 L 139.737 236.786 Q 140.602 235.956 140.602 234.462 L 140.602 234.462 L 140.602 233.495 L 138.98 233.563 L 138.98 233.563 Q 137.047 233.632 136.192 234.164 L 136.192 234.164 L 136.192 234.164 Q 135.338 234.696 135.338 235.819 L 135.338 235.819 L 135.338 235.819 Q 135.338 236.698 135.87 237.157 L 135.87 237.157 L 135.87 237.157 Q 136.402 237.616 137.359 237.616 Z  M 154.205 237.255 L 154.205 238.759 L 144.82 238.759 L 144.82 237.362 L 148.58 233.583 L 148.58 233.583 Q 150.299 231.845 150.846 231.103 L 150.846 231.103 L 150.846 231.103 Q 151.393 230.36 151.666 229.657 L 151.666 229.657 L 151.666 229.657 Q 151.939 228.954 151.939 228.144 L 151.939 228.144 L 151.939 228.144 Q 151.939 227.001 151.246 226.332 L 151.246 226.332 L 151.246 226.332 Q 150.553 225.663 149.322 225.663 L 149.322 225.663 L 149.322 225.663 Q 148.434 225.663 147.638 225.956 L 147.638 225.956 L 147.638 225.956 Q 146.842 226.249 145.865 227.021 L 145.865 227.021 L 145.006 225.917 L 145.006 225.917 Q 146.979 224.276 149.303 224.276 L 149.303 224.276 L 149.303 224.276 Q 151.314 224.276 152.457 225.307 L 152.457 225.307 L 152.457 225.307 Q 153.6 226.337 153.6 228.075 L 153.6 228.075 L 153.6 228.075 Q 153.6 229.433 152.838 230.761 L 152.838 230.761 L 152.838 230.761 Q 152.076 232.089 149.986 234.12 L 149.986 234.12 L 146.861 237.177 L 146.861 237.255 L 154.205 237.255 L 154.205 237.255 Z " fill-rule="evenodd" fill="rgb(139,139,139)"/><path d=" M 142.223 289.759 L 141.021 289.759 L 140.699 288.235 L 140.621 288.235 L 140.621 288.235 Q 139.82 289.241 139.024 289.598 L 139.024 289.598 L 139.024 289.598 Q 138.229 289.954 137.037 289.954 L 137.037 289.954 L 137.037 289.954 Q 135.445 289.954 134.542 289.134 L 134.542 289.134 L 134.542 289.134 Q 133.639 288.313 133.639 286.8 L 133.639 286.8 L 133.639 286.8 Q 133.639 283.558 138.824 283.401 L 138.824 283.401 L 140.641 283.343 L 140.641 282.679 L 140.641 282.679 Q 140.641 281.419 140.099 280.818 L 140.099 280.818 L 140.099 280.818 Q 139.557 280.218 138.365 280.218 L 138.365 280.218 L 138.365 280.218 Q 137.027 280.218 135.338 281.038 L 135.338 281.038 L 134.84 279.798 L 134.84 279.798 Q 135.631 279.368 136.573 279.124 L 136.573 279.124 L 136.573 279.124 Q 137.516 278.88 138.463 278.88 L 138.463 278.88 L 138.463 278.88 Q 140.377 278.88 141.3 279.729 L 141.3 279.729 L 141.3 279.729 Q 142.223 280.579 142.223 282.454 L 142.223 282.454 L 142.223 289.759 L 142.223 289.759 Z  M 137.359 288.616 L 137.359 288.616 L 137.359 288.616 Q 138.873 288.616 139.737 287.786 L 139.737 287.786 L 139.737 287.786 Q 140.602 286.956 140.602 285.462 L 140.602 285.462 L 140.602 284.495 L 138.98 284.563 L 138.98 284.563 Q 137.047 284.632 136.192 285.164 L 136.192 285.164 L 136.192 285.164 Q 135.338 285.696 135.338 286.819 L 135.338 286.819 L 135.338 286.819 Q 135.338 287.698 135.87 288.157 L 135.87 288.157 L 135.87 288.157 Q 136.402 288.616 137.359 288.616 Z  M 150.826 275.481 L 150.826 289.759 L 149.244 289.759 L 149.244 279.583 L 149.244 279.583 Q 149.244 278.313 149.322 277.181 L 149.322 277.181 L 149.322 277.181 Q 149.117 277.386 148.863 277.61 L 148.863 277.61 L 148.863 277.61 Q 148.609 277.835 146.539 279.515 L 146.539 279.515 L 145.68 278.401 L 149.459 275.481 L 150.826 275.481 L 150.826 275.481 Z " fill-rule="evenodd" fill="rgb(139,139,139)"/></g><g style="isolation:isolate"><g style="isolation:isolate"><defs><filter id="YaD2dtQHodrzd1s9ROXyNquhK4etNac9" x="-200%" y="-200%" width="400%" height="400%" filterUnits="objectBoundingBox" color-interpolation-filters="sRGB"><feOffset xmlns="http://www.w3.org/2000/svg" in="SourceGraphic" dx="0" dy="0"/><feGaussianBlur xmlns="http://www.w3.org/2000/svg" stdDeviation="2.146804531419514" result="pf_100_offsetBlur"/><feComposite xmlns="http://www.w3.org/2000/svg" in="SourceGraphic" in2="pf_100_offsetBlur" result="pf_100_inverse" operator="out"/><feFlood xmlns="http://www.w3.org/2000/svg" flood-color="#000000" flood-opacity="0.5" result="pf_100_color"/><feComposite xmlns="http://www.w3.org/2000/svg" in="pf_100_color" in2="pf_100_inverse" operator="in" result="pf_100_shadow"/><feComposite xmlns="http://www.w3.org/2000/svg" in="pf_100_shadow" in2="SourceGraphic" operator="over"/></filter></defs><g filter="url(#YaD2dtQHodrzd1s9ROXyNquhK4etNac9)"><path d=" M 164 369 C 164 358.514 155.486 350 145 350 L 145 369 L 164 369 L 164 369 Z " fill="rgb(235,235,235)"/></g><defs><filter id="NdxyTizmV4Gdfl31NOZqoQmocGdZK94m" x="-200%" y="-200%" width="400%" height="400%" filterUnits="objectBoundingBox" color-interpolation-filters="sRGB"><feOffset xmlns="http://www.w3.org/2000/svg" in="SourceGraphic" dx="0" dy="0"/><feGaussianBlur xmlns="http://www.w3.org/2000/svg" stdDeviation="2.146804531419514" result="pf_100_offsetBlur"/><feComposite xmlns="http://www.w3.org/2000/svg" in="SourceGraphic" in2="pf_100_offsetBlur" result="pf_100_inverse" operator="out"/><feFlood xmlns="http://www.w3.org/2000/svg" flood-color="#000000" flood-opacity="0.5" result="pf_100_color"/><feComposite xmlns="http://www.w3.org/2000/svg" in="pf_100_color" in2="pf_100_inverse" operator="in" result="pf_100_shadow"/><feComposite xmlns="http://www.w3.org/2000/svg" in="pf_100_shadow" in2="SourceGraphic" operator="over"/></filter></defs><g filter="url(#NdxyTizmV4Gdfl31NOZqoQmocGdZK94m)"><path d=" M 164 369 C 164 379.486 155.486 388 145 388 L 145 388 L 145 369 L 164 369 L 164 369 Z " fill="rgb(235,235,235)"/></g><defs><filter id="AHGvtS5m1JkjaxD23LRD4gUm1n38Lnsb" x="-200%" y="-200%" width="400%" height="400%" filterUnits="objectBoundingBox" color-interpolation-filters="sRGB"><feOffset xmlns="http://www.w3.org/2000/svg" in="SourceGraphic" dx="0" dy="0"/><feGaussianBlur xmlns="http://www.w3.org/2000/svg" stdDeviation="2.146804531419514" result="pf_100_offsetBlur"/><feComposite xmlns="http://www.w3.org/2000/svg" in="SourceGraphic" in2="pf_100_offsetBlur" result="pf_100_inverse" operator="out"/><feFlood xmlns="http://www.w3.org/2000/svg" flood-color="#000000" flood-opacity="0.5" result="pf_100_color"/><feComposite xmlns="http://www.w3.org/2000/svg" in="pf_100_color" in2="pf_100_inverse" operator="in" result="pf_100_shadow"/><feComposite xmlns="http://www.w3.org/2000/svg" in="pf_100_shadow" in2="SourceGraphic" operator="over"/></filter></defs><g filter="url(#AHGvtS5m1JkjaxD23LRD4gUm1n38Lnsb)"><path d=" M 145 369 L 145 350 C 134.514 350 126 358.514 126 369 L 145 369 L 145 369 Z " fill="rgb(235,235,235)"/></g><defs><filter id="ILJIJ2nT7YP6wvMoXlVeTgOoV2rZV3me" x="-200%" y="-200%" width="400%" height="400%" filterUnits="objectBoundingBox" color-interpolation-filters="sRGB"><feOffset xmlns="http://www.w3.org/2000/svg" in="SourceGraphic" dx="0" dy="0"/><feGaussianBlur xmlns="http://www.w3.org/2000/svg" stdDeviation="2.146804531419514" result="pf_100_offsetBlur"/><feComposite xmlns="http://www.w3.org/2000/svg" in="SourceGraphic" in2="pf_100_offsetBlur" result="pf_100_inverse" operator="out"/><feFlood xmlns="http://www.w3.org/2000/svg" flood-color="#000000" flood-opacity="0.5" result="pf_100_color"/><feComposite xmlns="http://www.w3.org/2000/svg" in="pf_100_color" in2="pf_100_inverse" operator="in" result="pf_100_shadow"/><feComposite xmlns="http://www.w3.org/2000/svg" in="pf_100_shadow" in2="SourceGraphic" operator="over"/></filter></defs><g filter="url(#ILJIJ2nT7YP6wvMoXlVeTgOoV2rZV3me)"><path d=" M 145 369 L 145 388 L 145 388 C 134.514 388 126 379.486 126 369 L 145 369 L 145 369 Z " fill="rgb(48,129,48)"/></g></g><g style="isolation:isolate"><defs><filter id="BusLngitUhYxTIMO1KW512ooSAqrAV9N" x="-200%" y="-200%" width="400%" height="400%" filterUnits="objectBoundingBox" color-interpolation-filters="sRGB"><feOffset xmlns="http://www.w3.org/2000/svg" in="SourceGraphic" dx="0" dy="0"/><feGaussianBlur xmlns="http://www.w3.org/2000/svg" stdDeviation="2.146804531419514" result="pf_100_offsetBlur"/><feComposite xmlns="http://www.w3.org/2000/svg" in="SourceGraphic" in2="pf_100_offsetBlur" result="pf_100_inverse" operator="out"/><feFlood xmlns="http://www.w3.org/2000/svg" flood-color="#000000" flood-opacity="0.5" result="pf_100_color"/><feComposite xmlns="http://www.w3.org/2000/svg" in="pf_100_color" in2="pf_100_inverse" operator="in" result="pf_100_shadow"/><feComposite xmlns="http://www.w3.org/2000/svg" in="pf_100_shadow" in2="SourceGraphic" operator="over"/></filter></defs><g filter="url(#BusLngitUhYxTIMO1KW512ooSAqrAV9N)"><path d=" M 348 411 C 348 400.514 339.486 392 329 392 L 329 411 L 348 411 L 348 411 Z " fill="rgb(235,235,235)"/></g><defs><filter id="8PwPdue0AAWeQWnsyWmmMh6GpbzNyh0Y" x="-200%" y="-200%" width="400%" height="400%" filterUnits="objectBoundingBox" color-interpolation-filters="sRGB"><feOffset xmlns="http://www.w3.org/2000/svg" in="SourceGraphic" dx="0" dy="0"/><feGaussianBlur xmlns="http://www.w3.org/2000/svg" stdDeviation="2.146804531419514" result="pf_100_offsetBlur"/><feComposite xmlns="http://www.w3.org/2000/svg" in="SourceGraphic" in2="pf_100_offsetBlur" result="pf_100_inverse" operator="out"/><feFlood xmlns="http://www.w3.org/2000/svg" flood-color="#000000" flood-opacity="0.5" result="pf_100_color"/><feComposite xmlns="http://www.w3.org/2000/svg" in="pf_100_color" in2="pf_100_inverse" operator="in" result="pf_100_shadow"/><feComposite xmlns="http://www.w3.org/2000/svg" in="pf_100_shadow" in2="SourceGraphic" operator="over"/></filter></defs><g filter="url(#8PwPdue0AAWeQWnsyWmmMh6GpbzNyh0Y)"><path d=" M 348 411 C 348 421.486 339.486 430 329 430 L 329 430 L 329 411 L 348 411 L 348 411 Z " fill="rgb(235,235,235)"/></g><defs><filter id="x94sXHUews30t0aExRpvhLkV7GBMrsVu" x="-200%" y="-200%" width="400%" height="400%" filterUnits="objectBoundingBox" color-interpolation-filters="sRGB"><feOffset xmlns="http://www.w3.org/2000/svg" in="SourceGraphic" dx="0" dy="0"/><feGaussianBlur xmlns="http://www.w3.org/2000/svg" stdDeviation="2.146804531419514" result="pf_100_offsetBlur"/><feComposite xmlns="http://www.w3.org/2000/svg" in="SourceGraphic" in2="pf_100_offsetBlur" result="pf_100_inverse" operator="out"/><feFlood xmlns="http://www.w3.org/2000/svg" flood-color="#000000" flood-opacity="0.5" result="pf_100_color"/><feComposite xmlns="http://www.w3.org/2000/svg" in="pf_100_color" in2="pf_100_inverse" operator="in" result="pf_100_shadow"/><feComposite xmlns="http://www.w3.org/2000/svg" in="pf_100_shadow" in2="SourceGraphic" operator="over"/></filter></defs><g filter="url(#x94sXHUews30t0aExRpvhLkV7GBMrsVu)"><path d=" M 329 411 L 329 392 C 318.514 392 310 400.514 310 411 L 329 411 L 329 411 Z " fill="rgb(235,235,235)"/></g><defs><filter id="cG27mzw6CF94dyS6QS6NBbEszKVY75FL" x="-200%" y="-200%" width="400%" height="400%" filterUnits="objectBoundingBox" color-interpolation-filters="sRGB"><feOffset xmlns="http://www.w3.org/2000/svg" in="SourceGraphic" dx="0" dy="0"/><feGaussianBlur xmlns="http://www.w3.org/2000/svg" stdDeviation="2.146804531419514" result="pf_100_offsetBlur"/><feComposite xmlns="http://www.w3.org/2000/svg" in="SourceGraphic" in2="pf_100_offsetBlur" result="pf_100_inverse" operator="out"/><feFlood xmlns="http://www.w3.org/2000/svg" flood-color="#000000" flood-opacity="0.5" result="pf_100_color"/><feComposite xmlns="http://www.w3.org/2000/svg" in="pf_100_color" in2="pf_100_inverse" operator="in" result="pf_100_shadow"/><feComposite xmlns="http://www.w3.org/2000/svg" in="pf_100_shadow" in2="SourceGraphic" operator="over"/></filter></defs><g filter="url(#cG27mzw6CF94dyS6QS6NBbEszKVY75FL)"><path d=" M 329 411 L 329 430 L 329 430 C 318.514 430 310 421.486 310 411 L 329 411 L 329 411 Z " fill="rgb(240,183,93)"/></g></g><g style="isolation:isolate"><defs><filter id="AqeZb2tkkmDOX34McsQTk6dErP7cmfnN" x="-200%" y="-200%" width="400%" height="400%" filterUnits="objectBoundingBox" color-interpolation-filters="sRGB"><feOffset xmlns="http://www.w3.org/2000/svg" in="SourceGraphic" dx="0" dy="0"/><feGaussianBlur xmlns="http://www.w3.org/2000/svg" stdDeviation="2.146804531419514" result="pf_100_offsetBlur"/><feComposite xmlns="http://www.w3.org/2000/svg" in="SourceGraphic" in2="pf_100_offsetBlur" result="pf_100_inverse" operator="out"/><feFlood xmlns="http://www.w3.org/2000/svg" flood-color="#000000" flood-opacity="0.5" result="pf_100_color"/><feComposite xmlns="http://www.w3.org/2000/svg" in="pf_100_color" in2="pf_100_inverse" operator="in" result="pf_100_shadow"/><feComposite xmlns="http://www.w3.org/2000/svg" in="pf_100_shadow" in2="SourceGraphic" operator="over"/></filter></defs><g filter="url(#AqeZb2tkkmDOX34McsQTk6dErP7cmfnN)"><path d=" M 531 369 C 531 358.514 522.486 350 512 350 L 512 369 L 531 369 L 531 369 Z " fill="rgb(235,235,235)"/></g><defs><filter id="zpMLgdZZYrRGn0takpadBNjv1JfG780F" x="-200%" y="-200%" width="400%" height="400%" filterUnits="objectBoundingBox" color-interpolation-filters="sRGB"><feOffset xmlns="http://www.w3.org/2000/svg" in="SourceGraphic" dx="0" dy="0"/><feGaussianBlur xmlns="http://www.w3.org/2000/svg" stdDeviation="2.146804531419514" result="pf_100_offsetBlur"/><feComposite xmlns="http://www.w3.org/2000/svg" in="SourceGraphic" in2="pf_100_offsetBlur" result="pf_100_inverse" operator="out"/><feFlood xmlns="http://www.w3.org/2000/svg" flood-color="#000000" flood-opacity="0.5" result="pf_100_color"/><feComposite xmlns="http://www.w3.org/2000/svg" in="pf_100_color" in2="pf_100_inverse" operator="in" result="pf_100_shadow"/><feComposite xmlns="http://www.w3.org/2000/svg" in="pf_100_shadow" in2="SourceGraphic" operator="over"/></filter></defs><g filter="url(#zpMLgdZZYrRGn0takpadBNjv1JfG780F)"><path d=" M 531 369 C 531 379.486 522.486 388 512 388 L 512 388 L 512 369 L 531 369 L 531 369 Z " fill="rgb(235,235,235)"/></g><defs><filter id="EP6ZJKzewpTaRlYrRNXXDzGFtlkQywAv" x="-200%" y="-200%" width="400%" height="400%" filterUnits="objectBoundingBox" color-interpolation-filters="sRGB"><feOffset xmlns="http://www.w3.org/2000/svg" in="SourceGraphic" dx="0" dy="0"/><feGaussianBlur xmlns="http://www.w3.org/2000/svg" stdDeviation="2.146804531419514" result="pf_100_offsetBlur"/><feComposite xmlns="http://www.w3.org/2000/svg" in="SourceGraphic" in2="pf_100_offsetBlur" result="pf_100_inverse" operator="out"/><feFlood xmlns="http://www.w3.org/2000/svg" flood-color="#000000" flood-opacity="0.5" result="pf_100_color"/><feComposite xmlns="http://www.w3.org/2000/svg" in="pf_100_color" in2="pf_100_inverse" operator="in" result="pf_100_shadow"/><feComposite xmlns="http://www.w3.org/2000/svg" in="pf_100_shadow" in2="SourceGraphic" operator="over"/></filter></defs><g filter="url(#EP6ZJKzewpTaRlYrRNXXDzGFtlkQywAv)"><path d=" M 512 369 L 512 350 C 501.514 350 493 358.514 493 369 L 512 369 L 512 369 Z " fill="rgb(235,235,235)"/></g><defs><filter id="F7yltRCCSz9wS11clqzDofOCw8mV3PNK" x="-200%" y="-200%" width="400%" height="400%" filterUnits="objectBoundingBox" color-interpolation-filters="sRGB"><feOffset xmlns="http://www.w3.org/2000/svg" in="SourceGraphic" dx="0" dy="0"/><feGaussianBlur xmlns="http://www.w3.org/2000/svg" stdDeviation="2.146804531419514" result="pf_100_offsetBlur"/><feComposite xmlns="http://www.w3.org/2000/svg" in="SourceGraphic" in2="pf_100_offsetBlur" result="pf_100_inverse" operator="out"/><feFlood xmlns="http://www.w3.org/2000/svg" flood-color="#000000" flood-opacity="0.5" result="pf_100_color"/><feComposite xmlns="http://www.w3.org/2000/svg" in="pf_100_color" in2="pf_100_inverse" operator="in" result="pf_100_shadow"/><feComposite xmlns="http://www.w3.org/2000/svg" in="pf_100_shadow" in2="SourceGraphic" operator="over"/></filter></defs><g filter="url(#F7yltRCCSz9wS11clqzDofOCw8mV3PNK)"><path d=" M 512 369 L 512 388 L 512 388 C 501.514 388 493 379.486 493 369 L 512 369 L 512 369 Z " fill="rgb(240,183,93)"/></g></g><g style="isolation:isolate"><defs><filter id="Zh8FYJnaMY322472ODo6raM68mn82iCh" x="-200%" y="-200%" width="400%" height="400%" filterUnits="objectBoundingBox" color-interpolation-filters="sRGB"><feOffset xmlns="http://www.w3.org/2000/svg" in="SourceGraphic" dx="0" dy="0"/><feGaussianBlur xmlns="http://www.w3.org/2000/svg" stdDeviation="2.146804531419514" result="pf_100_offsetBlur"/><feComposite xmlns="http://www.w3.org/2000/svg" in="SourceGraphic" in2="pf_100_offsetBlur" result="pf_100_inverse" operator="out"/><feFlood xmlns="http://www.w3.org/2000/svg" flood-color="#000000" flood-opacity="0.5" result="pf_100_color"/><feComposite xmlns="http://www.w3.org/2000/svg" in="pf_100_color" in2="pf_100_inverse" operator="in" result="pf_100_shadow"/><feComposite xmlns="http://www.w3.org/2000/svg" in="pf_100_shadow" in2="SourceGraphic" operator="over"/></filter></defs><g filter="url(#Zh8FYJnaMY322472ODo6raM68mn82iCh)"><path d=" M 715 336 C 715 325.514 706.486 317 696 317 L 696 336 L 715 336 L 715 336 Z " fill="rgb(235,235,235)"/></g><defs><filter id="hGp95bnNPW2f4609CoyCDyFMyGpQqNTM" x="-200%" y="-200%" width="400%" height="400%" filterUnits="objectBoundingBox" color-interpolation-filters="sRGB"><feOffset xmlns="http://www.w3.org/2000/svg" in="SourceGraphic" dx="0" dy="0"/><feGaussianBlur xmlns="http://www.w3.org/2000/svg" stdDeviation="2.146804531419514" result="pf_100_offsetBlur"/><feComposite xmlns="http://www.w3.org/2000/svg" in="SourceGraphic" in2="pf_100_offsetBlur" result="pf_100_inverse" operator="out"/><feFlood xmlns="http://www.w3.org/2000/svg" flood-color="#000000" flood-opacity="0.5" result="pf_100_color"/><feComposite xmlns="http://www.w3.org/2000/svg" in="pf_100_color" in2="pf_100_inverse" operator="in" result="pf_100_shadow"/><feComposite xmlns="http://www.w3.org/2000/svg" in="pf_100_shadow" in2="SourceGraphic" operator="over"/></filter></defs><g filter="url(#hGp95bnNPW2f4609CoyCDyFMyGpQqNTM)"><path d=" M 715 336 C 715 346.486 706.486 355 696 355 L 696 355 L 696 336 L 715 336 L 715 336 Z " fill="rgb(235,235,235)"/></g><defs><filter id="MrC4JK85n4KYetbVWZQgnYmiUt14mOUG" x="-200%" y="-200%" width="400%" height="400%" filterUnits="objectBoundingBox" color-interpolation-filters="sRGB"><feOffset xmlns="http://www.w3.org/2000/svg" in="SourceGraphic" dx="0" dy="0"/><feGaussianBlur xmlns="http://www.w3.org/2000/svg" stdDeviation="2.146804531419514" result="pf_100_offsetBlur"/><feComposite xmlns="http://www.w3.org/2000/svg" in="SourceGraphic" in2="pf_100_offsetBlur" result="pf_100_inverse" operator="out"/><feFlood xmlns="http://www.w3.org/2000/svg" flood-color="#000000" flood-opacity="0.5" result="pf_100_color"/><feComposite xmlns="http://www.w3.org/2000/svg" in="pf_100_color" in2="pf_100_inverse" operator="in" result="pf_100_shadow"/><feComposite xmlns="http://www.w3.org/2000/svg" in="pf_100_shadow" in2="SourceGraphic" operator="over"/></filter></defs><g filter="url(#MrC4JK85n4KYetbVWZQgnYmiUt14mOUG)"><path d=" M 696 336 L 696 317 C 685.514 317 677 325.514 677 336 L 696 336 L 696 336 Z " fill="rgb(235,235,235)"/></g><defs><filter id="8EhMHvpxKpVfKJuIzY3tDbVE1QMflSzv" x="-200%" y="-200%" width="400%" height="400%" filterUnits="objectBoundingBox" color-interpolation-filters="sRGB"><feOffset xmlns="http://www.w3.org/2000/svg" in="SourceGraphic" dx="0" dy="0"/><feGaussianBlur xmlns="http://www.w3.org/2000/svg" stdDeviation="2.146804531419514" result="pf_100_offsetBlur"/><feComposite xmlns="http://www.w3.org/2000/svg" in="SourceGraphic" in2="pf_100_offsetBlur" result="pf_100_inverse" operator="out"/><feFlood xmlns="http://www.w3.org/2000/svg" flood-color="#000000" flood-opacity="0.5" result="pf_100_color"/><feComposite xmlns="http://www.w3.org/2000/svg" in="pf_100_color" in2="pf_100_inverse" operator="in" result="pf_100_shadow"/><feComposite xmlns="http://www.w3.org/2000/svg" in="pf_100_shadow" in2="SourceGraphic" operator="over"/></filter></defs><g filter="url(#8EhMHvpxKpVfKJuIzY3tDbVE1QMflSzv)"><path d=" M 696 336 L 696 355 L 696 355 C 685.514 355 677 346.486 677 336 L 696 336 L 696 336 Z " fill="rgb(48,129,48)"/></g></g><g style="isolation:isolate"><defs><filter id="ITyEkm17dElt5HYb7Z0lMgxbpXL7Iq90" x="-200%" y="-200%" width="400%" height="400%" filterUnits="objectBoundingBox" color-interpolation-filters="sRGB"><feOffset xmlns="http://www.w3.org/2000/svg" in="SourceGraphic" dx="0" dy="0"/><feGaussianBlur xmlns="http://www.w3.org/2000/svg" stdDeviation="2.146804531419514" result="pf_100_offsetBlur"/><feComposite xmlns="http://www.w3.org/2000/svg" in="SourceGraphic" in2="pf_100_offsetBlur" result="pf_100_inverse" operator="out"/><feFlood xmlns="http://www.w3.org/2000/svg" flood-color="#000000" flood-opacity="0.5" result="pf_100_color"/><feComposite xmlns="http://www.w3.org/2000/svg" in="pf_100_color" in2="pf_100_inverse" operator="in" result="pf_100_shadow"/><feComposite xmlns="http://www.w3.org/2000/svg" in="pf_100_shadow" in2="SourceGraphic" operator="over"/></filter></defs><g filter="url(#ITyEkm17dElt5HYb7Z0lMgxbpXL7Iq90)"><path d=" M 348 358 C 348 347.514 339.486 339 329 339 L 329 358 L 348 358 L 348 358 Z " fill="rgb(235,235,235)"/></g><defs><filter id="QWZRUKyymh2P0dZI0n1LXy3SglW1v1tr" x="-200%" y="-200%" width="400%" height="400%" filterUnits="objectBoundingBox" color-interpolation-filters="sRGB"><feOffset xmlns="http://www.w3.org/2000/svg" in="SourceGraphic" dx="0" dy="0"/><feGaussianBlur xmlns="http://www.w3.org/2000/svg" stdDeviation="2.146804531419514" result="pf_100_offsetBlur"/><feComposite xmlns="http://www.w3.org/2000/svg" in="SourceGraphic" in2="pf_100_offsetBlur" result="pf_100_inverse" operator="out"/><feFlood xmlns="http://www.w3.org/2000/svg" flood-color="#000000" flood-opacity="0.5" result="pf_100_color"/><feComposite xmlns="http://www.w3.org/2000/svg" in="pf_100_color" in2="pf_100_inverse" operator="in" result="pf_100_shadow"/><feComposite xmlns="http://www.w3.org/2000/svg" in="pf_100_shadow" in2="SourceGraphic" operator="over"/></filter></defs><g filter="url(#QWZRUKyymh2P0dZI0n1LXy3SglW1v1tr)"><path d=" M 348 358 C 348 368.486 339.486 377 329 377 L 329 377 L 329 358 L 348 358 L 348 358 Z " fill="rgb(235,235,235)"/></g><defs><filter id="N4bkQQ9EZU4zIvEjrp2mfkopuXt4x31u" x="-200%" y="-200%" width="400%" height="400%" filterUnits="objectBoundingBox" color-interpolation-filters="sRGB"><feOffset xmlns="http://www.w3.org/2000/svg" in="SourceGraphic" dx="0" dy="0"/><feGaussianBlur xmlns="http://www.w3.org/2000/svg" stdDeviation="2.146804531419514" result="pf_100_offsetBlur"/><feComposite xmlns="http://www.w3.org/2000/svg" in="SourceGraphic" in2="pf_100_offsetBlur" result="pf_100_inverse" operator="out"/><feFlood xmlns="http://www.w3.org/2000/svg" flood-color="#000000" flood-opacity="0.5" result="pf_100_color"/><feComposite xmlns="http://www.w3.org/2000/svg" in="pf_100_color" in2="pf_100_inverse" operator="in" result="pf_100_shadow"/><feComposite xmlns="http://www.w3.org/2000/svg" in="pf_100_shadow" in2="SourceGraphic" operator="over"/></filter></defs><g filter="url(#N4bkQQ9EZU4zIvEjrp2mfkopuXt4x31u)"><path d=" M 329 358 L 329 339 C 318.514 339 310 347.514 310 358 L 329 358 L 329 358 Z " fill="rgb(235,235,235)"/></g><defs><filter id="5A0lzsq3Y0uCFWeyRAyQiKNrq92VMg13" x="-200%" y="-200%" width="400%" height="400%" filterUnits="objectBoundingBox" color-interpolation-filters="sRGB"><feOffset xmlns="http://www.w3.org/2000/svg" in="SourceGraphic" dx="0" dy="0"/><feGaussianBlur xmlns="http://www.w3.org/2000/svg" stdDeviation="2.146804531419514" result="pf_100_offsetBlur"/><feComposite xmlns="http://www.w3.org/2000/svg" in="SourceGraphic" in2="pf_100_offsetBlur" result="pf_100_inverse" operator="out"/><feFlood xmlns="http://www.w3.org/2000/svg" flood-color="#000000" flood-opacity="0.5" result="pf_100_color"/><feComposite xmlns="http://www.w3.org/2000/svg" in="pf_100_color" in2="pf_100_inverse" operator="in" result="pf_100_shadow"/><feComposite xmlns="http://www.w3.org/2000/svg" in="pf_100_shadow" in2="SourceGraphic" operator="over"/></filter></defs><g filter="url(#5A0lzsq3Y0uCFWeyRAyQiKNrq92VMg13)"><path d=" M 329 358 L 329 377 L 329 377 C 318.514 377 310 368.486 310 358 L 329 358 L 329 358 Z " fill="rgb(240,183,93)"/></g></g><g style="isolation:isolate"><defs><filter id="0jgZ75wDR5RA89mhxRRQsDnPFVJIrML9" x="-200%" y="-200%" width="400%" height="400%" filterUnits="objectBoundingBox" color-interpolation-filters="sRGB"><feOffset xmlns="http://www.w3.org/2000/svg" in="SourceGraphic" dx="0" dy="0"/><feGaussianBlur xmlns="http://www.w3.org/2000/svg" stdDeviation="2.146804531419514" result="pf_100_offsetBlur"/><feComposite xmlns="http://www.w3.org/2000/svg" in="SourceGraphic" in2="pf_100_offsetBlur" result="pf_100_inverse" operator="out"/><feFlood xmlns="http://www.w3.org/2000/svg" flood-color="#000000" flood-opacity="0.5" result="pf_100_color"/><feComposite xmlns="http://www.w3.org/2000/svg" in="pf_100_color" in2="pf_100_inverse" operator="in" result="pf_100_shadow"/><feComposite xmlns="http://www.w3.org/2000/svg" in="pf_100_shadow" in2="SourceGraphic" operator="over"/></filter></defs><g filter="url(#0jgZ75wDR5RA89mhxRRQsDnPFVJIrML9)"><path d=" M 164 282 C 164 271.514 155.486 263 145 263 L 145 282 L 164 282 L 164 282 Z " fill="rgb(235,235,235)"/></g><defs><filter id="zzf5Ttc6wb6B9kWVSym9rKDfmStznOzX" x="-200%" y="-200%" width="400%" height="400%" filterUnits="objectBoundingBox" color-interpolation-filters="sRGB"><feOffset xmlns="http://www.w3.org/2000/svg" in="SourceGraphic" dx="0" dy="0"/><feGaussianBlur xmlns="http://www.w3.org/2000/svg" stdDeviation="2.146804531419514" result="pf_100_offsetBlur"/><feComposite xmlns="http://www.w3.org/2000/svg" in="SourceGraphic" in2="pf_100_offsetBlur" result="pf_100_inverse" operator="out"/><feFlood xmlns="http://www.w3.org/2000/svg" flood-color="#000000" flood-opacity="0.5" result="pf_100_color"/><feComposite xmlns="http://www.w3.org/2000/svg" in="pf_100_color" in2="pf_100_inverse" operator="in" result="pf_100_shadow"/><feComposite xmlns="http://www.w3.org/2000/svg" in="pf_100_shadow" in2="SourceGraphic" operator="over"/></filter></defs><g filter="url(#zzf5Ttc6wb6B9kWVSym9rKDfmStznOzX)"><path d=" M 164 282 C 164 292.486 155.486 301 145 301 L 145 301 L 145 282 L 164 282 L 164 282 Z " fill="rgb(240,183,93)"/></g><defs><filter id="IXrQmTRouaAE4aPkmYDmE2d77sLvIv7J" x="-200%" y="-200%" width="400%" height="400%" filterUnits="objectBoundingBox" color-interpolation-filters="sRGB"><feOffset xmlns="http://www.w3.org/2000/svg" in="SourceGraphic" dx="0" dy="0"/><feGaussianBlur xmlns="http://www.w3.org/2000/svg" stdDeviation="2.146804531419514" result="pf_100_offsetBlur"/><feComposite xmlns="http://www.w3.org/2000/svg" in="SourceGraphic" in2="pf_100_offsetBlur" result="pf_100_inverse" operator="out"/><feFlood xmlns="http://www.w3.org/2000/svg" flood-color="#000000" flood-opacity="0.5" result="pf_100_color"/><feComposite xmlns="http://www.w3.org/2000/svg" in="pf_100_color" in2="pf_100_inverse" operator="in" result="pf_100_shadow"/><feComposite xmlns="http://www.w3.org/2000/svg" in="pf_100_shadow" in2="SourceGraphic" operator="over"/></filter></defs><g filter="url(#IXrQmTRouaAE4aPkmYDmE2d77sLvIv7J)"><path d=" M 145 282 L 145 263 C 134.514 263 126 271.514 126 282 L 145 282 L 145 282 Z " fill="rgb(240,183,93)"/></g><defs><filter id="wP6KP2I6DDi7gYSQLuyAkypXlmHnAXqX" x="-200%" y="-200%" width="400%" height="400%" filterUnits="objectBoundingBox" color-interpolation-filters="sRGB"><feOffset xmlns="http://www.w3.org/2000/svg" in="SourceGraphic" dx="0" dy="0"/><feGaussianBlur xmlns="http://www.w3.org/2000/svg" stdDeviation="2.146804531419514" result="pf_100_offsetBlur"/><feComposite xmlns="http://www.w3.org/2000/svg" in="SourceGraphic" in2="pf_100_offsetBlur" result="pf_100_inverse" operator="out"/><feFlood xmlns="http://www.w3.org/2000/svg" flood-color="#000000" flood-opacity="0.5" result="pf_100_color"/><feComposite xmlns="http://www.w3.org/2000/svg" in="pf_100_color" in2="pf_100_inverse" operator="in" result="pf_100_shadow"/><feComposite xmlns="http://www.w3.org/2000/svg" in="pf_100_shadow" in2="SourceGraphic" operator="over"/></filter></defs><g filter="url(#wP6KP2I6DDi7gYSQLuyAkypXlmHnAXqX)"><path d=" M 145 282 L 145 301 L 145 301 C 134.514 301 126 292.486 126 282 L 145 282 L 145 282 Z " fill="rgb(48,129,48)"/></g></g><g style="isolation:isolate"><defs><filter id="zuDpYucA1LmlRBK5jr47VYgGvKANb0in" x="-200%" y="-200%" width="400%" height="400%" filterUnits="objectBoundingBox" color-interpolation-filters="sRGB"><feOffset xmlns="http://www.w3.org/2000/svg" in="SourceGraphic" dx="0" dy="0"/><feGaussianBlur xmlns="http://www.w3.org/2000/svg" stdDeviation="2.146804531419514" result="pf_100_offsetBlur"/><feComposite xmlns="http://www.w3.org/2000/svg" in="SourceGraphic" in2="pf_100_offsetBlur" result="pf_100_inverse" operator="out"/><feFlood xmlns="http://www.w3.org/2000/svg" flood-color="#000000" flood-opacity="0.5" result="pf_100_color"/><feComposite xmlns="http://www.w3.org/2000/svg" in="pf_100_color" in2="pf_100_inverse" operator="in" result="pf_100_shadow"/><feComposite xmlns="http://www.w3.org/2000/svg" in="pf_100_shadow" in2="SourceGraphic" operator="over"/></filter></defs><g filter="url(#zuDpYucA1LmlRBK5jr47VYgGvKANb0in)"><path d=" M 531 309 C 531 298.514 522.486 290 512 290 L 512 309 L 531 309 L 531 309 Z " fill="rgb(235,235,235)"/></g><defs><filter id="XaP1WW4ciwftWuDY3ulHJGQytSIi3y1T" x="-200%" y="-200%" width="400%" height="400%" filterUnits="objectBoundingBox" color-interpolation-filters="sRGB"><feOffset xmlns="http://www.w3.org/2000/svg" in="SourceGraphic" dx="0" dy="0"/><feGaussianBlur xmlns="http://www.w3.org/2000/svg" stdDeviation="2.146804531419514" result="pf_100_offsetBlur"/><feComposite xmlns="http://www.w3.org/2000/svg" in="SourceGraphic" in2="pf_100_offsetBlur" result="pf_100_inverse" operator="out"/><feFlood xmlns="http://www.w3.org/2000/svg" flood-color="#000000" flood-opacity="0.5" result="pf_100_color"/><feComposite xmlns="http://www.w3.org/2000/svg" in="pf_100_color" in2="pf_100_inverse" operator="in" result="pf_100_shadow"/><feComposite xmlns="http://www.w3.org/2000/svg" in="pf_100_shadow" in2="SourceGraphic" operator="over"/></filter></defs><g filter="url(#XaP1WW4ciwftWuDY3ulHJGQytSIi3y1T)"><path d=" M 531 309 C 531 319.486 522.486 328 512 328 L 512 328 L 512 309 L 531 309 L 531 309 Z " fill="rgb(235,235,235)"/></g><defs><filter id="exsUfBRc2Qm6dLxA5MU8iNtYkqVxbbfS" x="-200%" y="-200%" width="400%" height="400%" filterUnits="objectBoundingBox" color-interpolation-filters="sRGB"><feOffset xmlns="http://www.w3.org/2000/svg" in="SourceGraphic" dx="0" dy="0"/><feGaussianBlur xmlns="http://www.w3.org/2000/svg" stdDeviation="2.146804531419514" result="pf_100_offsetBlur"/><feComposite xmlns="http://www.w3.org/2000/svg" in="SourceGraphic" in2="pf_100_offsetBlur" result="pf_100_inverse" operator="out"/><feFlood xmlns="http://www.w3.org/2000/svg" flood-color="#000000" flood-opacity="0.5" result="pf_100_color"/><feComposite xmlns="http://www.w3.org/2000/svg" in="pf_100_color" in2="pf_100_inverse" operator="in" result="pf_100_shadow"/><feComposite xmlns="http://www.w3.org/2000/svg" in="pf_100_shadow" in2="SourceGraphic" operator="over"/></filter></defs><g filter="url(#exsUfBRc2Qm6dLxA5MU8iNtYkqVxbbfS)"><path d=" M 512 309 L 512 290 C 501.514 290 493 298.514 493 309 L 512 309 L 512 309 Z " fill="rgb(235,235,235)"/></g><defs><filter id="GGH6ACMtZu6MIl3YJFL3gZlRiXBIOSNd" x="-200%" y="-200%" width="400%" height="400%" filterUnits="objectBoundingBox" color-interpolation-filters="sRGB"><feOffset xmlns="http://www.w3.org/2000/svg" in="SourceGraphic" dx="0" dy="0"/><feGaussianBlur xmlns="http://www.w3.org/2000/svg" stdDeviation="2.146804531419514" result="pf_100_offsetBlur"/><feComposite xmlns="http://www.w3.org/2000/svg" in="SourceGraphic" in2="pf_100_offsetBlur" result="pf_100_inverse" operator="out"/><feFlood xmlns="http://www.w3.org/2000/svg" flood-color="#000000" flood-opacity="0.5" result="pf_100_color"/><feComposite xmlns="http://www.w3.org/2000/svg" in="pf_100_color" in2="pf_100_inverse" operator="in" result="pf_100_shadow"/><feComposite xmlns="http://www.w3.org/2000/svg" in="pf_100_shadow" in2="SourceGraphic" operator="over"/></filter></defs><g filter="url(#GGH6ACMtZu6MIl3YJFL3gZlRiXBIOSNd)"><path d=" M 512 309 L 512 328 L 512 328 C 501.514 328 493 319.486 493 309 L 512 309 L 512 309 Z " fill="rgb(240,183,93)"/></g></g><g style="isolation:isolate"><defs><filter id="60yxbD0eQLb8u1NOmVX7Gkl1xupLtQVQ" x="-200%" y="-200%" width="400%" height="400%" filterUnits="objectBoundingBox" color-interpolation-filters="sRGB"><feOffset xmlns="http://www.w3.org/2000/svg" in="SourceGraphic" dx="0" dy="0"/><feGaussianBlur xmlns="http://www.w3.org/2000/svg" stdDeviation="2.146804531419514" result="pf_100_offsetBlur"/><feComposite xmlns="http://www.w3.org/2000/svg" in="SourceGraphic" in2="pf_100_offsetBlur" result="pf_100_inverse" operator="out"/><feFlood xmlns="http://www.w3.org/2000/svg" flood-color="#000000" flood-opacity="0.5" result="pf_100_color"/><feComposite xmlns="http://www.w3.org/2000/svg" in="pf_100_color" in2="pf_100_inverse" operator="in" result="pf_100_shadow"/><feComposite xmlns="http://www.w3.org/2000/svg" in="pf_100_shadow" in2="SourceGraphic" operator="over"/></filter></defs><g filter="url(#60yxbD0eQLb8u1NOmVX7Gkl1xupLtQVQ)"><path d=" M 348 282 C 348 271.514 339.486 263 329 263 L 329 282 L 348 282 L 348 282 Z " fill="rgb(235,235,235)"/></g><defs><filter id="yTvbL2zUJzOxIa5eINukB4hIZHbCbkQ3" x="-200%" y="-200%" width="400%" height="400%" filterUnits="objectBoundingBox" color-interpolation-filters="sRGB"><feOffset xmlns="http://www.w3.org/2000/svg" in="SourceGraphic" dx="0" dy="0"/><feGaussianBlur xmlns="http://www.w3.org/2000/svg" stdDeviation="2.146804531419514" result="pf_100_offsetBlur"/><feComposite xmlns="http://www.w3.org/2000/svg" in="SourceGraphic" in2="pf_100_offsetBlur" result="pf_100_inverse" operator="out"/><feFlood xmlns="http://www.w3.org/2000/svg" flood-color="#000000" flood-opacity="0.5" result="pf_100_color"/><feComposite xmlns="http://www.w3.org/2000/svg" in="pf_100_color" in2="pf_100_inverse" operator="in" result="pf_100_shadow"/><feComposite xmlns="http://www.w3.org/2000/svg" in="pf_100_shadow" in2="SourceGraphic" operator="over"/></filter></defs><g filter="url(#yTvbL2zUJzOxIa5eINukB4hIZHbCbkQ3)"><path d=" M 348 282 C 348 292.486 339.486 301 329 301 L 329 301 L 329 282 L 348 282 L 348 282 Z " fill="rgb(48,129,48)"/></g><defs><filter id="ehZra4AhypmawWe0aOAAuIc5lMubOe0r" x="-200%" y="-200%" width="400%" height="400%" filterUnits="objectBoundingBox" color-interpolation-filters="sRGB"><feOffset xmlns="http://www.w3.org/2000/svg" in="SourceGraphic" dx="0" dy="0"/><feGaussianBlur xmlns="http://www.w3.org/2000/svg" stdDeviation="2.146804531419514" result="pf_100_offsetBlur"/><feComposite xmlns="http://www.w3.org/2000/svg" in="SourceGraphic" in2="pf_100_offsetBlur" result="pf_100_inverse" operator="out"/><feFlood xmlns="http://www.w3.org/2000/svg" flood-color="#000000" flood-opacity="0.5" result="pf_100_color"/><feComposite xmlns="http://www.w3.org/2000/svg" in="pf_100_color" in2="pf_100_inverse" operator="in" result="pf_100_shadow"/><feComposite xmlns="http://www.w3.org/2000/svg" in="pf_100_shadow" in2="SourceGraphic" operator="over"/></filter></defs><g filter="url(#ehZra4AhypmawWe0aOAAuIc5lMubOe0r)"><path d=" M 329 282 L 329 263 C 318.514 263 310 271.514 310 282 L 329 282 L 329 282 Z " fill="rgb(48,129,48)"/></g><defs><filter id="TEgdbTQC3VehTfMeg249FuSPE5METj1T" x="-200%" y="-200%" width="400%" height="400%" filterUnits="objectBoundingBox" color-interpolation-filters="sRGB"><feOffset xmlns="http://www.w3.org/2000/svg" in="SourceGraphic" dx="0" dy="0"/><feGaussianBlur xmlns="http://www.w3.org/2000/svg" stdDeviation="2.146804531419514" result="pf_100_offsetBlur"/><feComposite xmlns="http://www.w3.org/2000/svg" in="SourceGraphic" in2="pf_100_offsetBlur" result="pf_100_inverse" operator="out"/><feFlood xmlns="http://www.w3.org/2000/svg" flood-color="#000000" flood-opacity="0.5" result="pf_100_color"/><feComposite xmlns="http://www.w3.org/2000/svg" in="pf_100_color" in2="pf_100_inverse" operator="in" result="pf_100_shadow"/><feComposite xmlns="http://www.w3.org/2000/svg" in="pf_100_shadow" in2="SourceGraphic" operator="over"/></filter></defs><g filter="url(#TEgdbTQC3VehTfMeg249FuSPE5METj1T)"><path d=" M 329 282 L 329 301 L 329 301 C 318.514 301 310 292.486 310 282 L 329 282 L 329 282 Z " fill="rgb(240,183,93)"/></g></g></g></g></svg>